<svg width="202" height="202" viewBox="0 0 202 202" fill="none" xmlns="http://www.w3.org/2000/svg">
    <circle cx="100.5" cy="100.5" r="71.5" fill="#01665E"/>
    <circle opacity="0.8" cx="100.5" cy="101.5" r="78" stroke="#01665E"/>
    <circle opacity="0.5" cx="101" cy="103" r="86.5" stroke="#01665E"/>
    <circle opacity="0.2" cx="101" cy="102" r="93.5" stroke="#01665E"/>
    <circle opacity="0.1" cx="101" cy="101" r="100.5" stroke="#01665E"/>
    <path d="M67.5992 100.985V96.2749H68.5717V106H67.5992V101.902C66.7563 102.318 65.8765 102.527 64.9595 102.527C64.0426 102.527 63.3016 102.267 62.7366 101.749C62.1809 101.23 61.903 100.563 61.903 99.7481V96.2749H62.8756V99.7481C62.8756 100.313 63.0608 100.767 63.4313 101.11C63.8018 101.443 64.3112 101.61 64.9595 101.61C65.8765 101.61 66.7563 101.401 67.5992 100.985ZM78.019 106H77.0465V98.081L71.6282 106H70.7946V96.2749H71.7671V104.194L77.1854 96.2749H78.019V106ZM79.4039 96.2749H86.3504V97.1918H83.3634V106H82.3909V97.1918H79.4039V96.2749ZM94.5506 106H93.5225L92.6195 103.61H88.007L87.1039 106H86.0758L89.8131 96.2749H90.8134L94.5506 106ZM90.3132 97.4836L88.3543 102.693H92.2721L90.3132 97.4836ZM94.2738 96.2749H101.22V97.1918H98.2333V106H97.2608V97.1918H94.2738V96.2749ZM103.583 99.8871H106.083C106.954 99.8871 107.681 100.179 108.265 100.762C108.848 101.346 109.14 102.073 109.14 102.944C109.14 103.814 108.848 104.541 108.265 105.125C107.681 105.708 106.954 106 106.083 106H102.61V96.2749H103.583V99.8871ZM103.583 105.083H106.083C106.685 105.083 107.181 104.884 107.57 104.486C107.968 104.087 108.167 103.573 108.167 102.944C108.167 102.323 107.968 101.814 107.57 101.415C107.181 101.008 106.685 100.804 106.083 100.804H103.583V105.083ZM119.669 100.957C120.15 101.161 120.53 101.471 120.808 101.888C121.086 102.304 121.225 102.772 121.225 103.291C121.225 104.041 120.961 104.68 120.433 105.208C119.905 105.736 119.266 106 118.516 106H114.278V96.2749H118.196C118.909 96.2749 119.525 96.5342 120.044 97.0529C120.553 97.5623 120.808 98.1736 120.808 98.8868C120.808 99.7944 120.428 100.484 119.669 100.957ZM118.196 97.1918H115.251V100.582H118.196C118.641 100.582 119.025 100.42 119.349 100.095C119.673 99.7528 119.835 99.3499 119.835 98.8868C119.835 98.4329 119.673 98.0347 119.349 97.692C119.025 97.3585 118.641 97.1918 118.196 97.1918ZM115.251 105.083H118.516C118.997 105.083 119.405 104.912 119.738 104.569C120.081 104.226 120.252 103.8 120.252 103.291C120.252 102.791 120.081 102.369 119.738 102.027C119.405 101.675 118.997 101.499 118.516 101.499H115.251V105.083ZM127.436 106.167C125.955 106.167 124.737 105.68 123.783 104.708C122.819 103.726 122.338 102.536 122.338 101.137C122.338 99.7389 122.819 98.5487 123.783 97.5669C124.737 96.5944 125.955 96.1082 127.436 96.1082C128.326 96.1082 129.145 96.3258 129.896 96.7611C130.646 97.1872 131.229 97.7661 131.646 98.4978L130.785 98.9979C130.479 98.4051 130.025 97.9328 129.423 97.5808C128.821 97.2289 128.159 97.0529 127.436 97.0529C126.214 97.0529 125.223 97.4465 124.463 98.2338C123.695 99.0303 123.31 99.9982 123.31 101.137C123.31 102.277 123.695 103.245 124.463 104.041C125.223 104.828 126.214 105.222 127.436 105.222C128.159 105.222 128.821 105.046 129.423 104.694C130.025 104.342 130.479 103.87 130.785 103.277L131.646 103.763C131.248 104.495 130.669 105.078 129.909 105.514C129.15 105.949 128.326 106.167 127.436 106.167ZM134.218 101.554V105.083H138.942V106H133.245V96.2749H138.872V97.1918H134.218V100.637H138.525V101.554H134.218Z" fill="white"/>
</svg>
