<svg width="267" height="6" viewBox="0 0 267 6" fill="none" xmlns="http://www.w3.org/2000/svg">
    <path d="M0.333333 3C0.333333 4.47276 1.52724 5.66667 3 5.66667C4.47276 5.66667 5.66667 4.47276 5.66667 3C5.66667 1.52724 4.47276 0.333333 3 0.333333C1.52724 0.333333 0.333333 1.52724 0.333333 3ZM261.333 3C261.333 4.47276 262.527 5.66667 264 5.66667C265.473 5.66667 266.667 4.47276 266.667 3C266.667 1.52724 265.473 0.333333 264 0.333333C262.527 0.333333 261.333 1.52724 261.333 3ZM3 3V3.5H264V3V2.5H3V3Z" fill="black"/>
</svg>
