<svg width="20" height="20" viewBox="0 0 20 20" fill="none" xmlns="http://www.w3.org/2000/svg">
    <path fill-rule="evenodd" clip-rule="evenodd" d="M11.0541 15.686L13.3958 13.3443C13.4058 13.3343 13.415 13.3243 13.4241 13.3143C13.4241 13.3143 13.8316 12.8493 14.4158 12.181C15.5933 10.8351 16.1508 9.05598 15.9516 7.27931C15.7525 5.50264 14.815 3.89098 13.3691 2.83931L13.3675 2.83848C11.3741 1.38848 8.67247 1.38848 6.6783 2.83848L6.67663 2.83931C5.2308 3.89098 4.2933 5.50264 4.09413 7.27931C3.8958 9.05598 4.45247 10.8351 5.62997 12.181C6.21497 12.8493 6.62163 13.3143 6.62163 13.3143C6.6308 13.3243 6.63997 13.3343 6.64997 13.3443L8.99163 15.686C9.56163 16.256 10.485 16.256 11.0541 15.686ZM10.17 14.8026C10.0891 14.8835 9.95747 14.8835 9.8758 14.8026L7.54913 12.4751L6.5708 11.3576C5.62497 10.276 5.17663 8.84681 5.33663 7.41848C5.49663 5.99014 6.24997 4.69598 7.41247 3.85014L7.4133 3.84931C8.96913 2.71764 11.0766 2.71764 12.6325 3.84931L12.6341 3.85014C13.7958 4.69598 14.5491 5.99014 14.7091 7.41848C14.8691 8.84681 14.4216 10.276 13.475 11.3576L12.4975 12.4751L10.17 14.8026Z" fill="#2E2E2E"/>
    <path fill-rule="evenodd" clip-rule="evenodd" d="M10.0808 5.28931C8.8608 5.28931 7.8708 6.28014 7.8708 7.50014C7.8708 8.72014 8.8608 9.71098 10.0808 9.71098C11.3008 9.71098 12.2916 8.72014 12.2916 7.50014C12.2916 6.28014 11.3008 5.28931 10.0808 5.28931ZM10.0808 6.53931C10.6108 6.53931 11.0416 6.97014 11.0416 7.50014C11.0416 8.03014 10.6108 8.46098 10.0808 8.46098C9.5508 8.46098 9.1208 8.03014 9.1208 7.50014C9.1208 6.97014 9.5508 6.53931 10.0808 6.53931Z" fill="#2E2E2E"/>
    <path fill-rule="evenodd" clip-rule="evenodd" d="M4.99997 18.1251H15C15.345 18.1251 15.625 17.8451 15.625 17.5001C15.625 17.1551 15.345 16.8751 15 16.8751H4.99997C4.65497 16.8751 4.37497 17.1551 4.37497 17.5001C4.37497 17.8451 4.65497 18.1251 4.99997 18.1251Z" fill="#2E2E2E"/>
</svg>
