<svg width="20" height="20" viewBox="0 0 20 20" fill="none" xmlns="http://www.w3.org/2000/svg">
    <path fill-rule="evenodd" clip-rule="evenodd" d="M6.24996 18.1251H13.7891C14.8283 18.1251 15.8258 17.7126 16.5608 16.9776C17.2958 16.2426 17.7083 15.2451 17.7083 14.2059V8.7451C17.7083 7.76594 17.2516 6.8426 16.4741 6.2476C15.1266 5.21677 12.7266 3.38177 11.375 2.34844C10.5633 1.7276 9.43663 1.7276 8.62496 2.34844C7.77735 2.99618 6.51747 3.95961 5.36343 4.84211C4.67941 5.36518 4.03257 5.85982 3.53079 6.24344C2.74996 6.84094 2.29163 7.7676 2.29163 8.75094V14.1668C2.29163 15.2168 2.70829 16.2234 3.45079 16.9659C4.19329 17.7084 5.19996 18.1251 6.24996 18.1251ZM15.6766 16.0934C15.1758 16.5943 14.4975 16.8751 13.7891 16.8751H12.7083V14.5832C12.7083 13.3176 11.6823 12.2915 10.4166 12.2915H9.58329C8.31764 12.2915 7.29163 13.3176 7.29163 14.5832V16.8751H6.24996C5.53163 16.8751 4.84246 16.5901 4.33496 16.0818C3.82663 15.5743 3.54163 14.8851 3.54163 14.1668V8.75094C3.54163 8.1576 3.81829 7.5976 4.28996 7.23677C5.38954 6.39611 7.18579 5.02229 8.54332 3.98401C8.85042 3.74913 9.13507 3.53142 9.38413 3.34094C9.74746 3.06344 10.2525 3.06344 10.6158 3.34094C11.2336 3.81327 12.0705 4.45328 12.9258 5.10736C13.9416 5.88422 14.9834 6.68092 15.715 7.2401C16.1833 7.59844 16.4583 8.1551 16.4583 8.7451V14.2059C16.4583 14.9143 16.1775 15.5926 15.6766 16.0934ZM8.54163 16.8751V14.5832C8.54163 14.0079 9.008 13.5415 9.58329 13.5415H10.4166C10.9919 13.5415 11.4583 14.0079 11.4583 14.5832V16.8751H8.54163Z" fill="#2E2E2E"/>
</svg>
