<svg width="84" height="73" viewBox="0 0 84 73" fill="none" xmlns="http://www.w3.org/2000/svg">
    <path d="M66.8587 72.5031H66.7548C60.6569 71.9025 55.5985 70.1702 51.5795 67.306C48.5999 65.7816 42.7099 60.2843 33.9096 50.8142C31.7615 53.5166 29.4171 56.427 26.8764 59.5452C26.6916 59.7069 26.5068 59.7877 26.322 59.7877C26.1834 59.7877 26.0333 59.7415 25.8716 59.6491C25.733 59.5336 25.6637 59.3719 25.6637 59.1641C25.6637 59.0255 25.7099 58.8984 25.8023 58.7829C28.2507 55.7802 30.5143 52.9738 32.5931 50.3638C30.676 49.9018 29.5442 49.1165 29.1977 48.0078V47.8692C29.1977 47.6844 29.2554 47.5228 29.3709 47.3842C29.6712 47.0839 30.0408 46.9338 30.4796 46.9338C31.3111 46.9338 32.3967 47.5228 33.7364 48.7007L33.8404 48.8047C41.4626 39.2884 46.5211 32.7055 49.0156 29.056V29.0214C49.7086 28.0513 50.1936 27.3122 50.4708 26.804C50.0088 27.0581 49.3505 27.5085 48.4959 28.1552C48.3804 28.2245 48.2534 28.2592 48.1148 28.2592C47.8838 28.2592 47.7106 28.1899 47.5951 28.0513C47.4796 27.9127 47.4219 27.7741 47.4219 27.6355C47.4219 27.4507 47.5027 27.2891 47.6644 27.1505C49.3967 25.857 50.5747 25.2103 51.1984 25.2103C51.4755 25.2103 51.695 25.3142 51.8567 25.5221C52.0183 25.7069 52.0992 25.9147 52.0992 26.1457C52.0761 26.7463 51.4293 27.9474 50.159 29.749C47.6413 33.3984 42.5829 39.9813 34.9837 49.4976C36.0462 49.59 37.0625 49.6362 38.0326 49.6362C42.5367 49.6362 47.0292 48.9202 51.5102 47.4881C58.7629 45.34 65.981 40.5241 73.1644 33.0404C79.0774 26.4575 82.034 20.8101 82.034 16.0982C82.034 10.7395 78.2113 6.58186 70.5659 3.62534C65.2072 2.40116 59.9409 1.78906 54.767 1.78906C40.377 1.78906 26.7378 6.48947 13.8492 15.8903C6.94293 21.6185 3.0394 28.0628 2.13859 35.2232C2.09239 35.9854 2.06929 36.7361 2.06929 37.4752C2.06929 44.3353 4.54076 49.2897 9.4837 52.3387C9.69158 52.4772 9.79552 52.6505 9.79552 52.8584C9.79552 52.9738 9.73777 53.1124 9.62228 53.2741C9.52989 53.4358 9.37976 53.5166 9.17187 53.5166C9.03329 53.5166 8.8947 53.482 8.75611 53.4127C3.39742 50.1328 0.718071 44.855 0.718071 37.5791C0.718071 36.7707 0.752717 35.9392 0.822011 35.0846C1.74592 27.6009 5.81114 20.8679 13.0177 14.8855C26.1372 5.29993 40.0306 0.507135 54.6977 0.507135C60.0102 0.507135 65.4266 1.14233 70.947 2.41271L71.0509 2.44735C79.2969 5.63485 83.4198 10.1274 83.4198 15.9249C83.4198 20.9834 80.3363 26.9657 74.1692 33.8719V33.9066C66.824 41.552 59.4096 46.4834 51.9259 48.7007C47.3064 50.179 42.6753 50.9181 38.0326 50.9181C37.2242 50.9181 36.4504 50.8835 35.7113 50.8142C44.0034 59.7069 49.5122 64.8461 52.2378 66.232L52.3417 66.2666C56.1759 68.9922 61.0265 70.6552 66.8933 71.2558C67.0781 71.2789 67.2283 71.3597 67.3437 71.4983C67.4592 71.6138 67.517 71.7639 67.517 71.9487C67.4708 72.1335 67.3784 72.2721 67.2398 72.3645C67.1243 72.4569 66.9973 72.5031 66.8587 72.5031ZM31.9001 48.874C31.5075 48.5737 31.1841 48.3774 30.93 48.285C31.161 48.516 31.4844 48.7123 31.9001 48.874Z" fill="#222222"/>
</svg>
