<svg width="398" height="214" viewBox="0 0 398 214" fill="none" xmlns="http://www.w3.org/2000/svg">
    <path d="M70.544 10.512C69.424 11.632 68.0533 12.192 66.432 12.192C64.8107 12.192 63.44 11.632 62.32 10.512C61.2 9.37067 60.64 8 60.64 6.4C60.64 4.78933 61.2 3.424 62.32 2.304C63.44 1.17333 64.8107 0.608 66.432 0.608C68.0533 0.608 69.424 1.17333 70.544 2.304C71.664 3.424 72.224 4.78933 72.224 6.4C72.224 8 71.664 9.37067 70.544 10.512ZM61.76 6.4C61.76 7.72267 62.208 8.83733 63.104 9.744C64 10.6507 65.1093 11.104 66.432 11.104C67.7547 11.104 68.864 10.6507 69.76 9.744C70.656 8.83733 71.104 7.72267 71.104 6.4C71.104 5.088 70.656 3.97867 69.76 3.072C68.864 2.15467 67.7547 1.696 66.432 1.696C65.1093 1.696 64 2.15467 63.104 3.072C62.208 3.97867 61.76 5.088 61.76 6.4ZM80.1585 0.799999H81.4225L77.3745 7.408V12H76.2545V7.376L72.2225 0.799999H73.4865L76.8305 6.288L80.1585 0.799999ZM90.0606 12H88.8766L87.8366 9.248H82.5246L81.4846 12H80.3006L84.6046 0.799999H85.7566L90.0606 12ZM85.1806 2.192L82.9246 8.192H87.4366L85.1806 2.192ZM92.6188 0.799999V10.944H97.7388V12H91.4988V0.799999H92.6188ZM109.103 7.568H103.343V6.544H109.103V7.568ZM120.887 12.192C119.18 12.192 117.778 11.632 116.679 10.512C115.57 9.38133 115.015 8.01067 115.015 6.4C115.015 4.78933 115.57 3.41867 116.679 2.288C117.778 1.168 119.18 0.608 120.887 0.608C121.911 0.608 122.855 0.858666 123.719 1.36C124.583 1.85067 125.255 2.51733 125.735 3.36L124.743 3.936C124.391 3.25333 123.868 2.70933 123.175 2.304C122.482 1.89867 121.719 1.696 120.887 1.696C119.479 1.696 118.338 2.14933 117.463 3.056C116.578 3.97333 116.135 5.088 116.135 6.4C116.135 7.712 116.578 8.82667 117.463 9.744C118.338 10.6507 119.479 11.104 120.887 11.104C121.719 11.104 122.482 10.9013 123.175 10.496C123.868 10.0907 124.391 9.54667 124.743 8.864L125.735 9.424C125.276 10.2667 124.61 10.9387 123.735 11.44C122.86 11.9413 121.911 12.192 120.887 12.192ZM126.457 4H133.177V5.024H130.345V12H129.289V5.024H126.457V4ZM138.752 3.808C139.893 3.808 140.864 4.21333 141.664 5.024C142.474 5.83467 142.88 6.82667 142.88 8C142.88 9.17333 142.474 10.1653 141.664 10.976C140.864 11.7867 139.893 12.192 138.752 12.192C137.333 12.192 136.256 11.6053 135.52 10.432V15.2H134.464V4H135.52V5.568C136.256 4.39467 137.333 3.808 138.752 3.808ZM136.432 10.256C137.04 10.864 137.786 11.168 138.672 11.168C139.557 11.168 140.304 10.864 140.912 10.256C141.52 9.62667 141.824 8.87467 141.824 8C141.824 7.11467 141.52 6.368 140.912 5.76C140.304 5.14133 139.557 4.832 138.672 4.832C137.786 4.832 137.04 5.14133 136.432 5.76C135.824 6.368 135.52 7.11467 135.52 8C135.52 8.87467 135.824 9.62667 136.432 10.256ZM151.34 10.992C150.518 11.792 149.526 12.192 148.364 12.192C147.18 12.192 146.182 11.792 145.372 10.992C144.561 10.1813 144.156 9.184 144.156 8C144.156 6.816 144.561 5.824 145.372 5.024C146.182 4.21333 147.18 3.808 148.364 3.808C149.537 3.808 150.529 4.21333 151.34 5.024C152.161 5.824 152.572 6.816 152.572 8C152.572 9.17333 152.161 10.1707 151.34 10.992ZM146.124 10.256C146.732 10.864 147.478 11.168 148.364 11.168C149.249 11.168 149.996 10.864 150.604 10.256C151.212 9.62667 151.516 8.87467 151.516 8C151.516 7.11467 151.212 6.368 150.604 5.76C149.996 5.14133 149.249 4.832 148.364 4.832C147.478 4.832 146.732 5.14133 146.124 5.76C145.516 6.368 145.212 7.11467 145.212 8C145.212 8.87467 145.516 9.62667 146.124 10.256ZM155.395 10.16L160.163 4H161.059V12H160.003V5.84L155.235 12H154.339V4H155.395V10.16ZM162.332 4H169.052V5.024H166.22V12H165.164V5.024H162.332V4ZM173.722 3.808C174.917 3.808 175.872 4.22933 176.586 5.072C177.322 5.904 177.69 6.89067 177.69 8.032C177.69 8.08533 177.68 8.25067 177.658 8.528H170.634C170.741 9.328 171.082 9.968 171.658 10.448C172.234 10.928 172.954 11.168 173.818 11.168C175.034 11.168 175.893 10.7147 176.394 9.808L177.322 10.352C176.97 10.928 176.485 11.3813 175.866 11.712C175.258 12.032 174.57 12.192 173.802 12.192C172.544 12.192 171.52 11.7973 170.73 11.008C169.941 10.2187 169.546 9.216 169.546 8C169.546 6.79467 169.936 5.79733 170.714 5.008C171.493 4.208 172.496 3.808 173.722 3.808ZM173.722 4.832C172.89 4.832 172.192 5.07733 171.626 5.568C171.072 6.05867 170.741 6.704 170.634 7.504H176.602C176.485 6.65067 176.16 5.99467 175.626 5.536C175.072 5.06667 174.437 4.832 173.722 4.832ZM179.89 4H185.618V12H184.562V5.024H180.946V8.592C180.946 9.92533 180.69 10.8427 180.178 11.344C179.676 11.8453 178.983 12.064 178.098 12V11.008C178.716 11.072 179.17 10.9227 179.458 10.56C179.746 10.1973 179.89 9.54133 179.89 8.592V4ZM188.91 7.04H191.102C191.838 7.04 192.468 7.27467 192.99 7.744C193.513 8.20267 193.774 8.79467 193.774 9.52C193.774 10.256 193.513 10.8533 192.99 11.312C192.489 11.7707 191.86 12 191.102 12H187.854V4H188.91V7.04ZM188.91 10.976H191.102C191.561 10.976 191.945 10.8427 192.254 10.576C192.564 10.2987 192.718 9.94667 192.718 9.52C192.718 9.09333 192.564 8.74667 192.254 8.48C191.945 8.20267 191.561 8.064 191.102 8.064H188.91V10.976ZM201.034 7.488V4H202.09V12H201.034V8.512H196.426V12H195.37V4H196.426V7.488H201.034ZM211.203 5.568V4H212.259V12H211.203V10.432C210.467 11.6053 209.39 12.192 207.971 12.192C206.83 12.192 205.854 11.7867 205.043 10.976C204.243 10.1653 203.843 9.17333 203.843 8C203.843 6.82667 204.243 5.83467 205.043 5.024C205.854 4.21333 206.83 3.808 207.971 3.808C209.39 3.808 210.467 4.39467 211.203 5.568ZM205.811 10.256C206.419 10.864 207.166 11.168 208.051 11.168C208.936 11.168 209.683 10.864 210.291 10.256C210.899 9.62667 211.203 8.87467 211.203 8C211.203 7.11467 210.899 6.368 210.291 5.76C209.683 5.14133 208.936 4.832 208.051 4.832C207.166 4.832 206.419 5.14133 205.811 5.76C205.203 6.368 204.899 7.11467 204.899 8C204.899 8.87467 205.203 9.62667 205.811 10.256ZM217.007 4H220.255V12H219.199V8.928H217.823L215.359 12H214.015L216.543 8.896C215.892 8.8 215.359 8.53333 214.943 8.096C214.538 7.648 214.335 7.10933 214.335 6.48C214.335 5.76533 214.591 5.17333 215.103 4.704C215.636 4.23467 216.271 4 217.007 4ZM217.007 7.936H219.199V5.024H217.007C216.548 5.024 216.164 5.16267 215.855 5.44C215.546 5.70667 215.391 6.05333 215.391 6.48C215.391 6.90667 215.546 7.25867 215.855 7.536C216.164 7.80267 216.548 7.936 217.007 7.936ZM228.959 6.24L234.495 12H233.023L227.775 6.576V12H226.655V0.799999H227.775V5.92L232.863 0.799999H234.335L228.959 6.24ZM241.762 10.992C240.94 11.792 239.948 12.192 238.786 12.192C237.602 12.192 236.604 11.792 235.794 10.992C234.983 10.1813 234.578 9.184 234.578 8C234.578 6.816 234.983 5.824 235.794 5.024C236.604 4.21333 237.602 3.808 238.786 3.808C239.959 3.808 240.951 4.21333 241.762 5.024C242.583 5.824 242.994 6.816 242.994 8C242.994 9.17333 242.583 10.1707 241.762 10.992ZM236.546 10.256C237.154 10.864 237.9 11.168 238.786 11.168C239.671 11.168 240.418 10.864 241.026 10.256C241.634 9.62667 241.938 8.87467 241.938 8C241.938 7.11467 241.634 6.368 241.026 5.76C240.418 5.14133 239.671 4.832 238.786 4.832C237.9 4.832 237.154 5.14133 236.546 5.76C235.938 6.368 235.634 7.11467 235.634 8C235.634 8.87467 235.938 9.62667 236.546 10.256ZM251.385 4H252.601V12H251.545V5.616L248.745 10.16H248.617L245.817 5.616V12H244.761V4H245.977L248.681 8.384L251.385 4ZM254.839 4H261.559V12H260.503V5.024H255.895V12H254.839V4ZM270.672 5.568V4H271.728V12H270.672V10.432C269.936 11.6053 268.859 12.192 267.44 12.192C266.299 12.192 265.323 11.7867 264.512 10.976C263.712 10.1653 263.312 9.17333 263.312 8C263.312 6.82667 263.712 5.83467 264.512 5.024C265.323 4.21333 266.299 3.808 267.44 3.808C268.859 3.808 269.936 4.39467 270.672 5.568ZM265.28 10.256C265.888 10.864 266.635 11.168 267.52 11.168C268.405 11.168 269.152 10.864 269.76 10.256C270.368 9.62667 270.672 8.87467 270.672 8C270.672 7.11467 270.368 6.368 269.76 5.76C269.152 5.14133 268.405 4.832 267.52 4.832C266.635 4.832 265.888 5.14133 265.28 5.76C264.672 6.368 264.368 7.11467 264.368 8C264.368 8.87467 264.672 9.62667 265.28 10.256ZM279.628 7.488V4H280.684V12H279.628V8.512H275.02V12H273.964V4H275.02V7.488H279.628ZM283.973 10.16L288.741 4H289.637V12H288.581V5.84L283.813 12H282.917V4H283.973V10.16ZM294.382 4H297.63V12H296.574V8.928H295.198L292.734 12H291.39L293.918 8.896C293.267 8.8 292.734 8.53333 292.318 8.096C291.913 7.648 291.71 7.10933 291.71 6.48C291.71 5.76533 291.966 5.17333 292.478 4.704C293.011 4.23467 293.646 4 294.382 4ZM294.382 7.936H296.574V5.024H294.382C293.923 5.024 293.539 5.16267 293.23 5.44C292.921 5.70667 292.766 6.05333 292.766 6.48C292.766 6.90667 292.921 7.25867 293.23 7.536C293.539 7.80267 293.923 7.936 294.382 7.936ZM300.35 10.64H301.63L300.67 14.24H299.71L300.35 10.64ZM310.178 6.24L315.714 12H314.242L308.994 6.576V12H307.874V0.799999H308.994V5.92L314.082 0.799999H315.554L310.178 6.24ZM322.98 10.992C322.159 11.792 321.167 12.192 320.004 12.192C318.82 12.192 317.823 11.792 317.012 10.992C316.202 10.1813 315.796 9.184 315.796 8C315.796 6.816 316.202 5.824 317.012 5.024C317.823 4.21333 318.82 3.808 320.004 3.808C321.178 3.808 322.17 4.21333 322.98 5.024C323.802 5.824 324.212 6.816 324.212 8C324.212 9.17333 323.802 10.1707 322.98 10.992ZM317.764 10.256C318.372 10.864 319.119 11.168 320.004 11.168C320.89 11.168 321.636 10.864 322.244 10.256C322.852 9.62667 323.156 8.87467 323.156 8C323.156 7.11467 322.852 6.368 322.244 5.76C321.636 5.14133 320.89 4.832 320.004 4.832C319.119 4.832 318.372 5.14133 317.764 5.76C317.156 6.368 316.852 7.11467 316.852 8C316.852 8.87467 317.156 9.62667 317.764 10.256ZM324.707 4H331.427V5.024H328.595V12H327.539V5.024H324.707V4ZM339.105 10.992C338.284 11.792 337.292 12.192 336.129 12.192C334.945 12.192 333.948 11.792 333.137 10.992C332.327 10.1813 331.921 9.184 331.921 8C331.921 6.816 332.327 5.824 333.137 5.024C333.948 4.21333 334.945 3.808 336.129 3.808C337.303 3.808 338.295 4.21333 339.105 5.024C339.927 5.824 340.337 6.816 340.337 8C340.337 9.17333 339.927 10.1707 339.105 10.992ZM333.889 10.256C334.497 10.864 335.244 11.168 336.129 11.168C337.015 11.168 337.761 10.864 338.369 10.256C338.977 9.62667 339.281 8.87467 339.281 8C339.281 7.11467 338.977 6.368 338.369 5.76C337.761 5.14133 337.015 4.832 336.129 4.832C335.244 4.832 334.497 5.14133 333.889 5.76C333.281 6.368 332.977 7.11467 332.977 8C332.977 8.87467 333.281 9.62667 333.889 10.256ZM346.392 3.808C347.534 3.808 348.504 4.21333 349.304 5.024C350.115 5.83467 350.52 6.82667 350.52 8C350.52 9.17333 350.115 10.1653 349.304 10.976C348.504 11.7867 347.534 12.192 346.392 12.192C344.974 12.192 343.896 11.6053 343.16 10.432V15.2H342.104V4H343.16V5.568C343.896 4.39467 344.974 3.808 346.392 3.808ZM344.072 10.256C344.68 10.864 345.427 11.168 346.312 11.168C347.198 11.168 347.944 10.864 348.552 10.256C349.16 9.62667 349.464 8.87467 349.464 8C349.464 7.11467 349.16 6.368 348.552 5.76C347.944 5.14133 347.198 4.832 346.312 4.832C345.427 4.832 344.68 5.14133 344.072 5.76C343.464 6.368 343.16 7.11467 343.16 8C343.16 8.87467 343.464 9.62667 344.072 10.256ZM359.156 5.568V4H360.212V12H359.156V10.432C358.42 11.6053 357.343 12.192 355.924 12.192C354.783 12.192 353.807 11.7867 352.996 10.976C352.196 10.1653 351.796 9.17333 351.796 8C351.796 6.82667 352.196 5.83467 352.996 5.024C353.807 4.21333 354.783 3.808 355.924 3.808C357.343 3.808 358.42 4.39467 359.156 5.568ZM353.764 10.256C354.372 10.864 355.119 11.168 356.004 11.168C356.89 11.168 357.636 10.864 358.244 10.256C358.852 9.62667 359.156 8.87467 359.156 8C359.156 7.11467 358.852 6.368 358.244 5.76C357.636 5.14133 356.89 4.832 356.004 4.832C355.119 4.832 354.372 5.14133 353.764 5.76C353.156 6.368 352.852 7.11467 352.852 8C352.852 8.87467 353.156 9.62667 353.764 10.256ZM364.96 4H368.208V12H367.152V8.928H365.776L363.312 12H361.968L364.496 8.896C363.845 8.8 363.312 8.53333 362.896 8.096C362.491 7.648 362.288 7.10933 362.288 6.48C362.288 5.76533 362.544 5.17333 363.056 4.704C363.589 4.23467 364.224 4 364.96 4ZM364.96 7.936H367.152V5.024H364.96C364.501 5.024 364.117 5.16267 363.808 5.44C363.499 5.70667 363.344 6.05333 363.344 6.48C363.344 6.90667 363.499 7.25867 363.808 7.536C364.117 7.80267 364.501 7.936 364.96 7.936ZM6.512 45.192C4.80533 45.192 3.40267 44.632 2.304 43.512C1.19467 42.3813 0.64 41.0107 0.64 39.4C0.64 37.7893 1.19467 36.4187 2.304 35.288C3.40267 34.168 4.80533 33.608 6.512 33.608C7.536 33.608 8.48 33.8587 9.344 34.36C10.208 34.8507 10.88 35.5173 11.36 36.36L10.368 36.936C10.016 36.2533 9.49333 35.7093 8.8 35.304C8.10667 34.8987 7.344 34.696 6.512 34.696C5.104 34.696 3.96267 35.1493 3.088 36.056C2.20267 36.9733 1.76 38.088 1.76 39.4C1.76 40.712 2.20267 41.8267 3.088 42.744C3.96267 43.6507 5.104 44.104 6.512 44.104C7.344 44.104 8.10667 43.9013 8.8 43.496C9.49333 43.0907 10.016 42.5467 10.368 41.864L11.36 42.424C10.9013 43.2667 10.2347 43.9387 9.36 44.44C8.48533 44.9413 7.536 45.192 6.512 45.192ZM19.4494 37V43.976H20.5694V47.144H19.5134V45H12.9854V47.144H11.9294V43.976H12.9054C13.4494 43.2507 13.7214 42.2427 13.7214 40.952V37H19.4494ZM14.1854 43.976H18.3934V38.024H14.7774V40.952C14.7774 42.1893 14.58 43.1973 14.1854 43.976ZM28.7344 38.568V37H29.7904V45H28.7344V43.432C27.9984 44.6053 26.921 45.192 25.5024 45.192C24.361 45.192 23.385 44.7867 22.5744 43.976C21.7744 43.1653 21.3744 42.1733 21.3744 41C21.3744 39.8267 21.7744 38.8347 22.5744 38.024C23.385 37.2133 24.361 36.808 25.5024 36.808C26.921 36.808 27.9984 37.3947 28.7344 38.568ZM23.3424 43.256C23.9504 43.864 24.697 44.168 25.5824 44.168C26.4677 44.168 27.2144 43.864 27.8224 43.256C28.4304 42.6267 28.7344 41.8747 28.7344 41C28.7344 40.1147 28.4304 39.368 27.8224 38.76C27.2144 38.1413 26.4677 37.832 25.5824 37.832C24.697 37.832 23.9504 38.1413 23.3424 38.76C22.7344 39.368 22.4304 40.1147 22.4304 41C22.4304 41.8747 22.7344 42.6267 23.3424 43.256ZM35.7223 36.808C36.9169 36.808 37.8716 37.2293 38.5863 38.072C39.3223 38.904 39.6903 39.8907 39.6903 41.032C39.6903 41.0853 39.6796 41.2507 39.6583 41.528H32.6343C32.7409 42.328 33.0823 42.968 33.6583 43.448C34.2343 43.928 34.9543 44.168 35.8183 44.168C37.0343 44.168 37.8929 43.7147 38.3943 42.808L39.3223 43.352C38.9703 43.928 38.4849 44.3813 37.8663 44.712C37.2583 45.032 36.5703 45.192 35.8023 45.192C34.5436 45.192 33.5196 44.7973 32.7303 44.008C31.9409 43.2187 31.5463 42.216 31.5463 41C31.5463 39.7947 31.9356 38.7973 32.7143 38.008C33.4929 37.208 34.4956 36.808 35.7223 36.808ZM35.7223 37.832C34.8903 37.832 34.1916 38.0773 33.6263 38.568C33.0716 39.0587 32.7409 39.704 32.6343 40.504H38.6023C38.4849 39.6507 38.1596 38.9947 37.6263 38.536C37.0716 38.0667 36.4369 37.832 35.7223 37.832ZM40.0975 37H46.8175V38.024H43.9855V45H42.9295V38.024H40.0975V37ZM57.4964 45.192C55.7897 45.192 54.387 44.632 53.2884 43.512C52.179 42.3813 51.6244 41.0107 51.6244 39.4C51.6244 37.7893 52.179 36.4187 53.2884 35.288C54.387 34.168 55.7897 33.608 57.4964 33.608C58.5204 33.608 59.4644 33.8587 60.3284 34.36C61.1924 34.8507 61.8644 35.5173 62.3444 36.36L61.3524 36.936C61.0004 36.2533 60.4777 35.7093 59.7844 35.304C59.091 34.8987 58.3284 34.696 57.4964 34.696C56.0884 34.696 54.947 35.1493 54.0724 36.056C53.187 36.9733 52.7444 38.088 52.7444 39.4C52.7444 40.712 53.187 41.8267 54.0724 42.744C54.947 43.6507 56.0884 44.104 57.4964 44.104C58.3284 44.104 59.091 43.9013 59.7844 43.496C60.4777 43.0907 61.0004 42.5467 61.3524 41.864L62.3444 42.424C61.8857 43.2667 61.219 43.9387 60.3444 44.44C59.4697 44.9413 58.5204 45.192 57.4964 45.192ZM69.1143 40.888C69.9889 41.208 70.4263 41.832 70.4263 42.76C70.4263 43.4213 70.2023 43.96 69.7543 44.376C69.3169 44.792 68.7036 45 67.9143 45H64.0263V37H67.5943C68.3623 37 68.9596 37.1973 69.3863 37.592C69.8236 37.9867 70.0423 38.504 70.0423 39.144C70.0423 39.944 69.7329 40.5253 69.1143 40.888ZM67.5943 38.024H65.0823V40.456H67.5943C68.5223 40.456 68.9863 40.04 68.9863 39.208C68.9863 38.8347 68.8636 38.5467 68.6183 38.344C68.3836 38.1307 68.0423 38.024 67.5943 38.024ZM65.0823 43.976H67.9143C68.3836 43.976 68.7409 43.864 68.9863 43.64C69.2423 43.416 69.3703 43.1013 69.3703 42.696C69.3703 42.312 69.2423 42.0133 68.9863 41.8C68.7409 41.5867 68.3836 41.48 67.9143 41.48H65.0823V43.976ZM78.7303 43.992C77.9089 44.792 76.9169 45.192 75.7543 45.192C74.5703 45.192 73.5729 44.792 72.7623 43.992C71.9516 43.1813 71.5463 42.184 71.5463 41C71.5463 39.816 71.9516 38.824 72.7623 38.024C73.5729 37.2133 74.5703 36.808 75.7543 36.808C76.9276 36.808 77.9196 37.2133 78.7303 38.024C79.5516 38.824 79.9623 39.816 79.9623 41C79.9623 42.1733 79.5516 43.1707 78.7303 43.992ZM73.5143 43.256C74.1223 43.864 74.8689 44.168 75.7543 44.168C76.6396 44.168 77.3863 43.864 77.9943 43.256C78.6023 42.6267 78.9062 41.8747 78.9062 41C78.9062 40.1147 78.6023 39.368 77.9943 38.76C77.3863 38.1413 76.6396 37.832 75.7543 37.832C74.8689 37.832 74.1223 38.1413 73.5143 38.76C72.9063 39.368 72.6023 40.1147 72.6023 41C72.6023 41.8747 72.9063 42.6267 73.5143 43.256ZM82.7854 43.16L87.5534 37H88.4494V45H87.3934V38.84L82.6254 45H81.7294V37H82.7854V43.16ZM104.107 43.512C102.987 44.632 101.616 45.192 99.9945 45.192C98.3732 45.192 97.0025 44.632 95.8825 43.512C94.7625 42.3707 94.2025 41 94.2025 39.4C94.2025 37.7893 94.7625 36.424 95.8825 35.304C97.0025 34.1733 98.3732 33.608 99.9945 33.608C101.616 33.608 102.987 34.1733 104.107 35.304C105.227 36.424 105.787 37.7893 105.787 39.4C105.787 41 105.227 42.3707 104.107 43.512ZM95.3225 39.4C95.3225 40.7227 95.7705 41.8373 96.6665 42.744C97.5625 43.6507 98.6718 44.104 99.9945 44.104C101.317 44.104 102.427 43.6507 103.323 42.744C104.219 41.8373 104.667 40.7227 104.667 39.4C104.667 38.088 104.219 36.9787 103.323 36.072C102.427 35.1547 101.317 34.696 99.9945 34.696C98.6718 34.696 97.5625 35.1547 96.6665 36.072C95.7705 36.9787 95.3225 38.088 95.3225 39.4ZM111.094 45.192C109.953 45.192 108.993 44.8133 108.214 44.056C107.446 43.288 107.062 42.296 107.062 41.08C107.062 39.7147 107.265 38.6693 107.67 37.944C108.075 37.208 108.897 36.5413 110.134 35.944C110.529 35.7627 110.838 35.624 111.062 35.528C111.435 35.3787 111.729 35.2507 111.942 35.144C112.87 34.7173 113.339 34.1893 113.35 33.56L114.182 34.04C114.129 34.3067 114.043 34.5467 113.926 34.76C113.787 34.9947 113.649 35.1813 113.51 35.32C113.382 35.4587 113.179 35.608 112.902 35.768C112.721 35.8747 112.502 35.992 112.246 36.12L111.446 36.456L110.694 36.776C109.958 37.096 109.409 37.432 109.046 37.784C108.694 38.1253 108.443 38.5733 108.294 39.128C108.635 38.6693 109.083 38.3227 109.638 38.088C110.193 37.8427 110.753 37.72 111.318 37.72C112.385 37.72 113.265 38.072 113.958 38.776C114.662 39.4693 115.014 40.36 115.014 41.448C115.014 42.5253 114.641 43.4213 113.894 44.136C113.158 44.84 112.225 45.192 111.094 45.192ZM109.014 43.352C109.569 43.8747 110.262 44.136 111.094 44.136C111.926 44.136 112.609 43.8853 113.142 43.384C113.686 42.872 113.958 42.2267 113.958 41.448C113.958 40.6587 113.702 40.0133 113.19 39.512C112.689 39 112.017 38.744 111.174 38.744C110.417 38.744 109.729 38.984 109.11 39.464C108.491 39.9227 108.182 40.552 108.182 41.352C108.182 42.1627 108.459 42.8293 109.014 43.352ZM118.484 40.04H120.676C121.412 40.04 122.041 40.2747 122.564 40.744C123.086 41.2027 123.348 41.7947 123.348 42.52C123.348 43.256 123.086 43.8533 122.564 44.312C122.062 44.7707 121.433 45 120.676 45H117.428V38.024H115.188V37H118.484V40.04ZM118.484 43.976H120.676C121.134 43.976 121.518 43.8427 121.828 43.576C122.137 43.2987 122.292 42.9467 122.292 42.52C122.292 42.0933 122.137 41.7467 121.828 41.48C121.518 41.2027 121.134 41.064 120.676 41.064H118.484V43.976ZM128.566 36.808C129.761 36.808 130.715 37.2293 131.43 38.072C132.166 38.904 132.534 39.8907 132.534 41.032C132.534 41.0853 132.523 41.2507 132.502 41.528H125.478C125.585 42.328 125.926 42.968 126.502 43.448C127.078 43.928 127.798 44.168 128.662 44.168C129.878 44.168 130.737 43.7147 131.238 42.808L132.166 43.352C131.814 43.928 131.329 44.3813 130.71 44.712C130.102 45.032 129.414 45.192 128.646 45.192C127.387 45.192 126.363 44.7973 125.574 44.008C124.785 43.2187 124.39 42.216 124.39 41C124.39 39.7947 124.779 38.7973 125.558 38.008C126.337 37.208 127.339 36.808 128.566 36.808ZM128.566 37.832C127.734 37.832 127.035 38.0773 126.47 38.568C125.915 39.0587 125.585 39.704 125.478 40.504H131.446C131.329 39.6507 131.003 38.9947 130.47 38.536C129.915 38.0667 129.281 37.832 128.566 37.832ZM136.39 40.84L140.678 45H139.27L135.27 41.144V45H134.214V37H135.27V40.536L139.078 37H140.518L136.39 40.84ZM141.16 37H147.88V38.024H145.048V45H143.992V38.024H141.16V37ZM150.223 40.04H152.415C153.151 40.04 153.78 40.2747 154.303 40.744C154.826 41.2027 155.087 41.7947 155.087 42.52C155.087 43.256 154.826 43.8533 154.303 44.312C153.802 44.7707 153.172 45 152.415 45H149.167V37H150.223V40.04ZM156.207 45V37H157.263V45H156.207ZM150.223 43.976H152.415C152.874 43.976 153.258 43.8427 153.567 43.576C153.876 43.2987 154.031 42.9467 154.031 42.52C154.031 42.0933 153.876 41.7467 153.567 41.48C153.258 41.2027 152.874 41.064 152.415 41.064H150.223V43.976ZM169.879 39.192C170.433 39.4267 170.871 39.784 171.191 40.264C171.511 40.744 171.671 41.2827 171.671 41.88C171.671 42.744 171.367 43.48 170.759 44.088C170.151 44.696 169.415 45 168.551 45H163.671V33.8H168.183C169.004 33.8 169.713 34.0987 170.311 34.696C170.897 35.2827 171.191 35.9867 171.191 36.808C171.191 37.8533 170.753 38.648 169.879 39.192ZM168.183 34.856H164.791V38.76H168.183C168.695 38.76 169.137 38.5733 169.511 38.2C169.884 37.8053 170.071 37.3413 170.071 36.808C170.071 36.2853 169.884 35.8267 169.511 35.432C169.137 35.048 168.695 34.856 168.183 34.856ZM164.791 43.944H168.551C169.105 43.944 169.575 43.7467 169.959 43.352C170.353 42.9573 170.551 42.4667 170.551 41.88C170.551 41.304 170.353 40.8187 169.959 40.424C169.575 40.0187 169.105 39.816 168.551 39.816H164.791V43.944ZM181.721 33.608C183.427 33.608 184.814 34.168 185.881 35.288C186.969 36.3973 187.513 37.768 187.513 39.4C187.513 41.032 186.969 42.408 185.881 43.528C184.803 44.6373 183.417 45.192 181.721 45.192C180.697 45.192 179.747 44.9413 178.873 44.44C177.998 43.9387 177.331 43.2667 176.873 42.424L177.865 41.864C178.217 42.5467 178.739 43.0907 179.433 43.496C180.126 43.9013 180.889 44.104 181.721 44.104C183.001 44.104 184.067 43.7093 184.921 42.92C185.763 42.1413 186.243 41.144 186.361 39.928H180.233V38.872H186.361C186.243 37.656 185.763 36.6587 184.921 35.88C184.067 35.0907 183.001 34.696 181.721 34.696C180.889 34.696 180.126 34.8987 179.433 35.304C178.739 35.7093 178.217 36.2533 177.865 36.936L176.873 36.36C177.353 35.5173 178.025 34.8507 178.889 34.36C179.753 33.8587 180.697 33.608 181.721 33.608ZM191.452 40.84L195.74 45H194.332L190.332 41.144V45H189.276V37H190.332V40.536L194.14 37H195.58L191.452 40.84ZM200.114 45.192C198.908 45.192 197.906 44.792 197.106 43.992C196.306 43.1707 195.906 42.1733 195.906 41C195.906 39.816 196.306 38.824 197.106 38.024C197.906 37.2133 198.908 36.808 200.114 36.808C200.903 36.808 201.612 37 202.242 37.384C202.871 37.7573 203.33 38.264 203.618 38.904L202.754 39.4C202.54 38.92 202.194 38.5413 201.714 38.264C201.244 37.976 200.711 37.832 200.114 37.832C199.228 37.832 198.482 38.1413 197.874 38.76C197.266 39.368 196.962 40.1147 196.962 41C196.962 41.8747 197.266 42.6267 197.874 43.256C198.482 43.864 199.228 44.168 200.114 44.168C200.7 44.168 201.228 44.0293 201.698 43.752C202.178 43.4747 202.551 43.0907 202.818 42.6L203.698 43.112C203.367 43.752 202.882 44.2587 202.242 44.632C201.602 45.0053 200.892 45.192 200.114 45.192ZM205.214 37H211.934V45H210.878V38.024H206.27V45H205.214V37ZM214.999 37H220.727V45H219.671V38.024H216.055V41.592C216.055 42.9253 215.799 43.8427 215.287 44.344C214.786 44.8453 214.092 45.064 213.207 45V44.008C213.826 44.072 214.279 43.9227 214.567 43.56C214.855 43.1973 214.999 42.5413 214.999 41.592V37ZM226.132 43.704L228.724 37H229.844L226.42 45.736C226.1 46.5467 225.652 47.1707 225.076 47.608C224.51 48.056 223.881 48.2533 223.188 48.2V47.208C224.148 47.3253 224.878 46.7707 225.38 45.544L225.588 45.048L222.004 37H223.124L226.132 43.704ZM237.688 38.568V37H238.744V45H237.688V43.432C236.952 44.6053 235.874 45.192 234.456 45.192C233.314 45.192 232.338 44.7867 231.528 43.976C230.728 43.1653 230.328 42.1733 230.328 41C230.328 39.8267 230.728 38.8347 231.528 38.024C232.338 37.2133 233.314 36.808 234.456 36.808C235.874 36.808 236.952 37.3947 237.688 38.568ZM232.296 43.256C232.904 43.864 233.65 44.168 234.536 44.168C235.421 44.168 236.168 43.864 236.776 43.256C237.384 42.6267 237.688 41.8747 237.688 41C237.688 40.1147 237.384 39.368 236.776 38.76C236.168 38.1413 235.421 37.832 234.536 37.832C233.65 37.832 232.904 38.1413 232.296 38.76C231.688 39.368 231.384 40.1147 231.384 41C231.384 41.8747 231.688 42.6267 232.296 43.256ZM240.019 37H246.739V38.024H243.907V45H242.851V38.024H240.019V37ZM254.594 38.568V37H255.65V45H254.594V43.432C253.858 44.6053 252.78 45.192 251.362 45.192C250.22 45.192 249.244 44.7867 248.434 43.976C247.634 43.1653 247.234 42.1733 247.234 41C247.234 39.8267 247.634 38.8347 248.434 38.024C249.244 37.2133 250.22 36.808 251.362 36.808C252.78 36.808 253.858 37.3947 254.594 38.568ZM249.202 43.256C249.81 43.864 250.556 44.168 251.442 44.168C252.327 44.168 253.074 43.864 253.682 43.256C254.29 42.6267 254.594 41.8747 254.594 41C254.594 40.1147 254.29 39.368 253.682 38.76C253.074 38.1413 252.327 37.832 251.442 37.832C250.556 37.832 249.81 38.1413 249.202 38.76C248.594 39.368 248.29 40.1147 248.29 41C248.29 41.8747 248.594 42.6267 249.202 43.256ZM264.446 37V43.976H265.726V47.144H264.67V45H257.886V37H258.942V43.976H263.39V37H264.446ZM268.379 43.16L273.147 37H274.043V45H272.987V38.84L268.219 45H267.323V37H268.379V43.16ZM283.108 36.808C284.282 36.808 285.274 37.2133 286.084 38.024C286.906 38.824 287.316 39.816 287.316 41C287.316 42.1733 286.906 43.1707 286.084 43.992C285.263 44.792 284.271 45.192 283.108 45.192C282.042 45.192 281.114 44.8453 280.324 44.152C279.546 43.4373 279.103 42.5573 278.996 41.512H277.332V45H276.276V37H277.332V40.488H278.996C279.114 39.432 279.556 38.5573 280.324 37.864C281.103 37.16 282.031 36.808 283.108 36.808ZM280.868 43.256C281.476 43.864 282.223 44.168 283.108 44.168C283.994 44.168 284.74 43.864 285.348 43.256C285.956 42.6267 286.26 41.8747 286.26 41C286.26 40.1147 285.956 39.368 285.348 38.76C284.74 38.1413 283.994 37.832 283.108 37.832C282.223 37.832 281.476 38.1413 280.868 38.76C280.26 39.368 279.956 40.1147 279.956 41C279.956 41.8747 280.26 42.6267 280.868 43.256ZM299.441 39.192C299.996 39.4267 300.433 39.784 300.753 40.264C301.073 40.744 301.233 41.2827 301.233 41.88C301.233 42.744 300.929 43.48 300.321 44.088C299.713 44.696 298.977 45 298.113 45H293.233V33.8H297.745C298.566 33.8 299.276 34.0987 299.873 34.696C300.46 35.2827 300.753 35.9867 300.753 36.808C300.753 37.8533 300.316 38.648 299.441 39.192ZM297.745 34.856H294.353V38.76H297.745C298.257 38.76 298.7 38.5733 299.073 38.2C299.446 37.8053 299.633 37.3413 299.633 36.808C299.633 36.2853 299.446 35.8267 299.073 35.432C298.7 35.048 298.257 34.856 297.745 34.856ZM294.353 43.944H298.113C298.668 43.944 299.137 43.7467 299.521 43.352C299.916 42.9573 300.113 42.4667 300.113 41.88C300.113 41.304 299.916 40.8187 299.521 40.424C299.137 40.0187 298.668 39.816 298.113 39.816H294.353V43.944ZM316.419 43.512C315.299 44.632 313.928 45.192 312.307 45.192C310.686 45.192 309.315 44.632 308.195 43.512C307.075 42.3707 306.515 41 306.515 39.4C306.515 37.7893 307.075 36.424 308.195 35.304C309.315 34.1733 310.686 33.608 312.307 33.608C313.928 33.608 315.299 34.1733 316.419 35.304C317.539 36.424 318.099 37.7893 318.099 39.4C318.099 41 317.539 42.3707 316.419 43.512ZM307.635 39.4C307.635 40.7227 308.083 41.8373 308.979 42.744C309.875 43.6507 310.984 44.104 312.307 44.104C313.63 44.104 314.739 43.6507 315.635 42.744C316.531 41.8373 316.979 40.7227 316.979 39.4C316.979 38.088 316.531 36.9787 315.635 36.072C314.739 35.1547 313.63 34.696 312.307 34.696C310.984 34.696 309.875 35.1547 308.979 36.072C308.083 36.9787 307.635 38.088 307.635 39.4ZM323.406 45.192C322.265 45.192 321.305 44.8133 320.526 44.056C319.758 43.288 319.374 42.296 319.374 41.08C319.374 39.7147 319.577 38.6693 319.982 37.944C320.388 37.208 321.209 36.5413 322.446 35.944C322.841 35.7627 323.15 35.624 323.374 35.528C323.748 35.3787 324.041 35.2507 324.254 35.144C325.182 34.7173 325.652 34.1893 325.662 33.56L326.494 34.04C326.441 34.3067 326.356 34.5467 326.238 34.76C326.1 34.9947 325.961 35.1813 325.822 35.32C325.694 35.4587 325.492 35.608 325.214 35.768C325.033 35.8747 324.814 35.992 324.558 36.12L323.758 36.456L323.006 36.776C322.27 37.096 321.721 37.432 321.358 37.784C321.006 38.1253 320.756 38.5733 320.606 39.128C320.948 38.6693 321.396 38.3227 321.95 38.088C322.505 37.8427 323.065 37.72 323.63 37.72C324.697 37.72 325.577 38.072 326.27 38.776C326.974 39.4693 327.326 40.36 327.326 41.448C327.326 42.5253 326.953 43.4213 326.206 44.136C325.47 44.84 324.537 45.192 323.406 45.192ZM321.326 43.352C321.881 43.8747 322.574 44.136 323.406 44.136C324.238 44.136 324.921 43.8853 325.454 43.384C325.998 42.872 326.27 42.2267 326.27 41.448C326.27 40.6587 326.014 40.0133 325.502 39.512C325.001 39 324.329 38.744 323.486 38.744C322.729 38.744 322.041 38.984 321.422 39.464C320.804 39.9227 320.494 40.552 320.494 41.352C320.494 42.1627 320.772 42.8293 321.326 43.352ZM332.629 36.808C333.823 36.808 334.778 37.2293 335.493 38.072C336.229 38.904 336.597 39.8907 336.597 41.032C336.597 41.0853 336.586 41.2507 336.565 41.528H329.541C329.647 42.328 329.989 42.968 330.565 43.448C331.141 43.928 331.861 44.168 332.725 44.168C333.941 44.168 334.799 43.7147 335.301 42.808L336.229 43.352C335.877 43.928 335.391 44.3813 334.773 44.712C334.165 45.032 333.477 45.192 332.709 45.192C331.45 45.192 330.426 44.7973 329.637 44.008C328.847 43.2187 328.453 42.216 328.453 41C328.453 39.7947 328.842 38.7973 329.621 38.008C330.399 37.208 331.402 36.808 332.629 36.808ZM332.629 37.832C331.797 37.832 331.098 38.0773 330.533 38.568C329.978 39.0587 329.647 39.704 329.541 40.504H335.509C335.391 39.6507 335.066 38.9947 334.533 38.536C333.978 38.0667 333.343 37.832 332.629 37.832ZM348.996 37V43.976H350.116V47.144H349.06V45H338.276V37H339.332V43.976H343.108V37H344.164V43.976H347.94V37H348.996ZM358.281 38.568V37H359.337V45H358.281V43.432C357.545 44.6053 356.468 45.192 355.049 45.192C353.908 45.192 352.932 44.7867 352.121 43.976C351.321 43.1653 350.921 42.1733 350.921 41C350.921 39.8267 351.321 38.8347 352.121 38.024C352.932 37.2133 353.908 36.808 355.049 36.808C356.468 36.808 357.545 37.3947 358.281 38.568ZM352.889 43.256C353.497 43.864 354.244 44.168 355.129 44.168C356.015 44.168 356.761 43.864 357.369 43.256C357.977 42.6267 358.281 41.8747 358.281 41C358.281 40.1147 357.977 39.368 357.369 38.76C356.761 38.1413 356.015 37.832 355.129 37.832C354.244 37.832 353.497 38.1413 352.889 38.76C352.281 39.368 351.977 40.1147 351.977 41C351.977 41.8747 352.281 42.6267 352.889 43.256ZM367.237 40.488V37H368.293V45H367.237V41.512H362.629V45H361.573V37H362.629V40.488H367.237ZM376.19 40.488V37H377.246V45H376.19V41.512H371.582V45H370.526V37H371.582V40.488H376.19ZM380.535 40.04H382.727C383.463 40.04 384.093 40.2747 384.615 40.744C385.138 41.2027 385.399 41.7947 385.399 42.52C385.399 43.256 385.138 43.8533 384.615 44.312C384.114 44.7707 383.485 45 382.727 45H379.479V37H380.535V40.04ZM386.519 45V37H387.575V45H386.519ZM380.535 43.976H382.727C383.186 43.976 383.57 43.8427 383.879 43.576C384.189 43.2987 384.343 42.9467 384.343 42.52C384.343 42.0933 384.189 41.7467 383.879 41.48C383.57 41.2027 383.186 41.064 382.727 41.064H380.535V43.976ZM393.519 36.808C394.714 36.808 395.668 37.2293 396.383 38.072C397.119 38.904 397.487 39.8907 397.487 41.032C397.487 41.0853 397.476 41.2507 397.455 41.528H390.431C390.538 42.328 390.879 42.968 391.455 43.448C392.031 43.928 392.751 44.168 393.615 44.168C394.831 44.168 395.69 43.7147 396.191 42.808L397.119 43.352C396.767 43.928 396.282 44.3813 395.663 44.712C395.055 45.032 394.367 45.192 393.599 45.192C392.34 45.192 391.316 44.7973 390.527 44.008C389.738 43.2187 389.343 42.216 389.343 41C389.343 39.7947 389.732 38.7973 390.511 38.008C391.29 37.208 392.292 36.808 393.519 36.808ZM393.519 37.832C392.687 37.832 391.988 38.0773 391.423 38.568C390.868 39.0587 390.538 39.704 390.431 40.504H396.399C396.282 39.6507 395.956 38.9947 395.423 38.536C394.868 38.0667 394.234 37.832 393.519 37.832ZM6.512 78.192C4.80533 78.192 3.40267 77.632 2.304 76.512C1.19467 75.3813 0.64 74.0107 0.64 72.4C0.64 70.7893 1.19467 69.4187 2.304 68.288C3.40267 67.168 4.80533 66.608 6.512 66.608C7.536 66.608 8.48 66.8587 9.344 67.36C10.208 67.8507 10.88 68.5173 11.36 69.36L10.368 69.936C10.016 69.2533 9.49333 68.7093 8.8 68.304C8.10667 67.8987 7.344 67.696 6.512 67.696C5.104 67.696 3.96267 68.1493 3.088 69.056C2.20267 69.9733 1.76 71.088 1.76 72.4C1.76 73.712 2.20267 74.8267 3.088 75.744C3.96267 76.6507 5.104 77.104 6.512 77.104C7.344 77.104 8.10667 76.9013 8.8 76.496C9.49333 76.0907 10.016 75.5467 10.368 74.864L11.36 75.424C10.9013 76.2667 10.2347 76.9387 9.36 77.44C8.48533 77.9413 7.536 78.192 6.512 78.192ZM17.3299 69.808C18.4712 69.808 19.4419 70.2133 20.2419 71.024C21.0525 71.8347 21.4579 72.8267 21.4579 74C21.4579 75.1733 21.0525 76.1653 20.2419 76.976C19.4419 77.7867 18.4712 78.192 17.3299 78.192C15.9112 78.192 14.8339 77.6053 14.0979 76.432V81.2H13.0419V70H14.0979V71.568C14.8339 70.3947 15.9112 69.808 17.3299 69.808ZM15.0099 76.256C15.6179 76.864 16.3645 77.168 17.2499 77.168C18.1352 77.168 18.8819 76.864 19.4899 76.256C20.0979 75.6267 20.4019 74.8747 20.4019 74C20.4019 73.1147 20.0979 72.368 19.4899 71.76C18.8819 71.1413 18.1352 70.832 17.2499 70.832C16.3645 70.832 15.6179 71.1413 15.0099 71.76C14.4019 72.368 14.0979 73.1147 14.0979 74C14.0979 74.8747 14.4019 75.6267 15.0099 76.256ZM29.9178 76.992C29.0964 77.792 28.1044 78.192 26.9418 78.192C25.7578 78.192 24.7604 77.792 23.9498 76.992C23.1391 76.1813 22.7338 75.184 22.7338 74C22.7338 72.816 23.1391 71.824 23.9498 71.024C24.7604 70.2133 25.7578 69.808 26.9418 69.808C28.1151 69.808 29.1071 70.2133 29.9178 71.024C30.7391 71.824 31.1498 72.816 31.1498 74C31.1498 75.1733 30.7391 76.1707 29.9178 76.992ZM24.7018 76.256C25.3098 76.864 26.0564 77.168 26.9418 77.168C27.8271 77.168 28.5738 76.864 29.1818 76.256C29.7898 75.6267 30.0938 74.8747 30.0938 74C30.0938 73.1147 29.7898 72.368 29.1818 71.76C28.5738 71.1413 27.8271 70.832 26.9418 70.832C26.0564 70.832 25.3098 71.1413 24.7018 71.76C24.0938 72.368 23.7898 73.1147 23.7898 74C23.7898 74.8747 24.0938 75.6267 24.7018 76.256ZM35.0929 73.84L39.3809 78H37.9729L33.9729 74.144V78H32.9169V70H33.9729V73.536L37.7809 70H39.2209L35.0929 73.84ZM41.8791 76.16L46.6471 70H47.5431V78H46.4871V71.84L41.7191 78H40.8231V70H41.8791V76.16ZM51.3763 77.28C51.3763 77.5253 51.2909 77.7333 51.1203 77.904C50.9496 78.0747 50.7416 78.16 50.4963 78.16C50.2509 78.16 50.0429 78.0747 49.8723 77.904C49.7016 77.7333 49.6163 77.5253 49.6163 77.28C49.6163 77.0347 49.7016 76.8267 49.8723 76.656C50.0429 76.4853 50.2509 76.4 50.4963 76.4C50.7416 76.4 50.9496 76.4853 51.1203 76.656C51.2909 76.8267 51.3763 77.0347 51.3763 77.28ZM8.48 137.712V132.8H9.6V144H8.48V138.768H2.4V144H1.28V132.8H2.4V137.712H8.48ZM18.875 137.568V136H19.931V144H18.875V142.432C18.139 143.605 17.0617 144.192 15.643 144.192C14.5017 144.192 13.5257 143.787 12.715 142.976C11.915 142.165 11.515 141.173 11.515 140C11.515 138.827 11.915 137.835 12.715 137.024C13.5257 136.213 14.5017 135.808 15.643 135.808C17.0617 135.808 18.139 136.395 18.875 137.568ZM13.483 142.256C14.091 142.864 14.8377 143.168 15.723 143.168C16.6083 143.168 17.355 142.864 17.963 142.256C18.571 141.627 18.875 140.875 18.875 140C18.875 139.115 18.571 138.368 17.963 137.76C17.355 137.141 16.6083 136.832 15.723 136.832C14.8377 136.832 14.091 137.141 13.483 137.76C12.875 138.368 12.571 139.115 12.571 140C12.571 140.875 12.875 141.627 13.483 142.256ZM31.8309 142.976V136H32.8869V144H22.1669V136H23.2229V142.976H26.9989V136H28.0549V142.976H31.8309ZM36.176 142.16L40.944 136H41.84V144H40.784V137.84L36.016 144H35.12V136H36.176V142.16ZM57.4971 142.512C56.3771 143.632 55.0065 144.192 53.3851 144.192C51.7638 144.192 50.3931 143.632 49.2731 142.512C48.1531 141.371 47.5931 140 47.5931 138.4C47.5931 136.789 48.1531 135.424 49.2731 134.304C50.3931 133.173 51.7638 132.608 53.3851 132.608C55.0065 132.608 56.3771 133.173 57.4971 134.304C58.6171 135.424 59.1771 136.789 59.1771 138.4C59.1771 140 58.6171 141.371 57.4971 142.512ZM48.7131 138.4C48.7131 139.723 49.1611 140.837 50.0571 141.744C50.9531 142.651 52.0625 143.104 53.3851 143.104C54.7078 143.104 55.8171 142.651 56.7131 141.744C57.6091 140.837 58.0571 139.723 58.0571 138.4C58.0571 137.088 57.6091 135.979 56.7131 135.072C55.8171 134.155 54.7078 133.696 53.3851 133.696C52.0625 133.696 50.9531 134.155 50.0571 135.072C49.1611 135.979 48.7131 137.088 48.7131 138.4ZM64.4845 144.192C63.3432 144.192 62.3832 143.813 61.6045 143.056C60.8365 142.288 60.4525 141.296 60.4525 140.08C60.4525 138.715 60.6552 137.669 61.0605 136.944C61.4658 136.208 62.2872 135.541 63.5245 134.944C63.9192 134.763 64.2285 134.624 64.4525 134.528C64.8258 134.379 65.1192 134.251 65.3325 134.144C66.2605 133.717 66.7298 133.189 66.7405 132.56L67.5725 133.04C67.5192 133.307 67.4338 133.547 67.3165 133.76C67.1778 133.995 67.0392 134.181 66.9005 134.32C66.7725 134.459 66.5698 134.608 66.2925 134.768C66.1112 134.875 65.8925 134.992 65.6365 135.12L64.8365 135.456L64.0845 135.776C63.3485 136.096 62.7992 136.432 62.4365 136.784C62.0845 137.125 61.8338 137.573 61.6845 138.128C62.0258 137.669 62.4738 137.323 63.0285 137.088C63.5832 136.843 64.1432 136.72 64.7085 136.72C65.7752 136.72 66.6552 137.072 67.3485 137.776C68.0525 138.469 68.4045 139.36 68.4045 140.448C68.4045 141.525 68.0312 142.421 67.2845 143.136C66.5485 143.84 65.6152 144.192 64.4845 144.192ZM62.4045 142.352C62.9592 142.875 63.6525 143.136 64.4845 143.136C65.3165 143.136 65.9992 142.885 66.5325 142.384C67.0765 141.872 67.3485 141.227 67.3485 140.448C67.3485 139.659 67.0925 139.013 66.5805 138.512C66.0792 138 65.4072 137.744 64.5645 137.744C63.8072 137.744 63.1192 137.984 62.5005 138.464C61.8818 138.923 61.5725 139.552 61.5725 140.352C61.5725 141.163 61.8498 141.829 62.4045 142.352ZM71.8741 139.04H74.0661C74.8021 139.04 75.4315 139.275 75.9541 139.744C76.4768 140.203 76.7381 140.795 76.7381 141.52C76.7381 142.256 76.4768 142.853 75.9541 143.312C75.4528 143.771 74.8235 144 74.0661 144H70.8181V137.024H68.5781V136H71.8741V139.04ZM71.8741 142.976H74.0661C74.5248 142.976 74.9088 142.843 75.2181 142.576C75.5275 142.299 75.6821 141.947 75.6821 141.52C75.6821 141.093 75.5275 140.747 75.2181 140.48C74.9088 140.203 74.5248 140.064 74.0661 140.064H71.8741V142.976ZM81.9566 135.808C83.1513 135.808 84.106 136.229 84.8206 137.072C85.5566 137.904 85.9246 138.891 85.9246 140.032C85.9246 140.085 85.914 140.251 85.8926 140.528H78.8686C78.9753 141.328 79.3166 141.968 79.8926 142.448C80.4686 142.928 81.1886 143.168 82.0526 143.168C83.2686 143.168 84.1273 142.715 84.6286 141.808L85.5566 142.352C85.2046 142.928 84.7193 143.381 84.1006 143.712C83.4926 144.032 82.8046 144.192 82.0366 144.192C80.778 144.192 79.754 143.797 78.9646 143.008C78.1753 142.219 77.7806 141.216 77.7806 140C77.7806 138.795 78.17 137.797 78.9486 137.008C79.7273 136.208 80.73 135.808 81.9566 135.808ZM81.9566 136.832C81.1246 136.832 80.426 137.077 79.8606 137.568C79.306 138.059 78.9753 138.704 78.8686 139.504H84.8366C84.7193 138.651 84.394 137.995 83.8606 137.536C83.306 137.067 82.6713 136.832 81.9566 136.832ZM89.7804 139.84L94.0684 144H92.6604L88.6604 140.144V144H87.6044V136H88.6604V139.536L92.4684 136H93.9084L89.7804 139.84ZM94.5506 136H101.271V137.024H98.4386V144H97.3826V137.024H94.5506V136ZM103.614 139.04H105.806C106.542 139.04 107.171 139.275 107.694 139.744C108.216 140.203 108.478 140.795 108.478 141.52C108.478 142.256 108.216 142.853 107.694 143.312C107.192 143.771 106.563 144 105.806 144H102.558V136H103.614V139.04ZM109.598 144V136H110.654V144H109.598ZM103.614 142.976H105.806C106.264 142.976 106.648 142.843 106.958 142.576C107.267 142.299 107.422 141.947 107.422 141.52C107.422 141.093 107.267 140.747 106.958 140.48C106.648 140.203 106.264 140.064 105.806 140.064H103.614V142.976ZM122.293 144.192C120.587 144.192 119.184 143.632 118.085 142.512C116.976 141.381 116.421 140.011 116.421 138.4C116.421 136.789 116.976 135.419 118.085 134.288C119.184 133.168 120.587 132.608 122.293 132.608C123.317 132.608 124.261 132.859 125.125 133.36C125.989 133.851 126.661 134.517 127.141 135.36L126.149 135.936C125.797 135.253 125.275 134.709 124.581 134.304C123.888 133.899 123.125 133.696 122.293 133.696C120.885 133.696 119.744 134.149 118.869 135.056C117.984 135.973 117.541 137.088 117.541 138.4C117.541 139.712 117.984 140.827 118.869 141.744C119.744 142.651 120.885 143.104 122.293 143.104C123.125 143.104 123.888 142.901 124.581 142.496C125.275 142.091 125.797 141.547 126.149 140.864L127.141 141.424C126.683 142.267 126.016 142.939 125.141 143.44C124.267 143.941 123.317 144.192 122.293 144.192ZM127.863 136H134.583V137.024H131.751V144H130.695V137.024H127.863V136ZM140.158 135.808C141.299 135.808 142.27 136.213 143.07 137.024C143.881 137.835 144.286 138.827 144.286 140C144.286 141.173 143.881 142.165 143.07 142.976C142.27 143.787 141.299 144.192 140.158 144.192C138.739 144.192 137.662 143.605 136.926 142.432V147.2H135.87V136H136.926V137.568C137.662 136.395 138.739 135.808 140.158 135.808ZM137.838 142.256C138.446 142.864 139.193 143.168 140.078 143.168C140.963 143.168 141.71 142.864 142.318 142.256C142.926 141.627 143.23 140.875 143.23 140C143.23 139.115 142.926 138.368 142.318 137.76C141.71 137.141 140.963 136.832 140.078 136.832C139.193 136.832 138.446 137.141 137.838 137.76C137.23 138.368 136.926 139.115 136.926 140C136.926 140.875 137.23 141.627 137.838 142.256ZM152.746 142.992C151.925 143.792 150.933 144.192 149.77 144.192C148.586 144.192 147.589 143.792 146.778 142.992C145.967 142.181 145.562 141.184 145.562 140C145.562 138.816 145.967 137.824 146.778 137.024C147.589 136.213 148.586 135.808 149.77 135.808C150.943 135.808 151.935 136.213 152.746 137.024C153.567 137.824 153.978 138.816 153.978 140C153.978 141.173 153.567 142.171 152.746 142.992ZM147.53 142.256C148.138 142.864 148.885 143.168 149.77 143.168C150.655 143.168 151.402 142.864 152.01 142.256C152.618 141.627 152.922 140.875 152.922 140C152.922 139.115 152.618 138.368 152.01 137.76C151.402 137.141 150.655 136.832 149.77 136.832C148.885 136.832 148.138 137.141 147.53 137.76C146.922 138.368 146.618 139.115 146.618 140C146.618 140.875 146.922 141.627 147.53 142.256ZM157.945 136H161.193V144H160.137V140.928H158.761L156.297 144H154.953L157.481 140.896C156.83 140.8 156.297 140.533 155.881 140.096C155.475 139.648 155.273 139.109 155.273 138.48C155.273 137.765 155.529 137.173 156.041 136.704C156.574 136.235 157.209 136 157.945 136ZM157.945 139.936H160.137V137.024H157.945C157.486 137.024 157.102 137.163 156.793 137.44C156.483 137.707 156.329 138.053 156.329 138.48C156.329 138.907 156.483 139.259 156.793 139.536C157.102 139.803 157.486 139.936 157.945 139.936ZM162.473 136H169.193V137.024H166.361V144H165.305V137.024H162.473V136ZM173.895 144.192C172.69 144.192 171.687 143.792 170.887 142.992C170.087 142.171 169.687 141.173 169.687 140C169.687 138.816 170.087 137.824 170.887 137.024C171.687 136.213 172.69 135.808 173.895 135.808C174.684 135.808 175.394 136 176.023 136.384C176.652 136.757 177.111 137.264 177.399 137.904L176.535 138.4C176.322 137.92 175.975 137.541 175.495 137.264C175.026 136.976 174.492 136.832 173.895 136.832C173.01 136.832 172.263 137.141 171.655 137.76C171.047 138.368 170.743 139.115 170.743 140C170.743 140.875 171.047 141.627 171.655 142.256C172.263 142.864 173.01 143.168 173.895 143.168C174.482 143.168 175.01 143.029 175.479 142.752C175.959 142.475 176.332 142.091 176.599 141.6L177.479 142.112C177.148 142.752 176.663 143.259 176.023 143.632C175.383 144.005 174.674 144.192 173.895 144.192ZM181.351 136H184.599V144H183.543V140.928H182.167L179.703 144H178.359L180.887 140.896C180.236 140.8 179.703 140.533 179.287 140.096C178.881 139.648 178.679 139.109 178.679 138.48C178.679 137.765 178.935 137.173 179.447 136.704C179.98 136.235 180.615 136 181.351 136ZM181.351 139.936H183.543V137.024H181.351C180.892 137.024 180.508 137.163 180.199 137.44C179.889 137.707 179.735 138.053 179.735 138.48C179.735 138.907 179.889 139.259 180.199 139.536C180.508 139.803 180.892 139.936 181.351 139.936ZM197.207 138.192C197.761 138.427 198.199 138.784 198.519 139.264C198.839 139.744 198.999 140.283 198.999 140.88C198.999 141.744 198.695 142.48 198.087 143.088C197.479 143.696 196.743 144 195.879 144H190.999V132.8H195.511C196.332 132.8 197.041 133.099 197.639 133.696C198.225 134.283 198.519 134.987 198.519 135.808C198.519 136.853 198.081 137.648 197.207 138.192ZM195.511 133.856H192.119V137.76H195.511C196.023 137.76 196.465 137.573 196.839 137.2C197.212 136.805 197.399 136.341 197.399 135.808C197.399 135.285 197.212 134.827 196.839 134.432C196.465 134.048 196.023 133.856 195.511 133.856ZM192.119 142.944H195.879C196.433 142.944 196.903 142.747 197.287 142.352C197.681 141.957 197.879 141.467 197.879 140.88C197.879 140.304 197.681 139.819 197.287 139.424C196.903 139.019 196.433 138.816 195.879 138.816H192.119V142.944ZM205.993 137.312H207.881C208.937 137.312 209.822 137.621 210.537 138.24C211.273 138.848 211.641 139.685 211.641 140.752C211.641 141.808 211.273 142.651 210.537 143.28C209.822 143.888 208.937 144.192 207.881 144.192C207.017 144.192 206.254 143.984 205.593 143.568C204.942 143.141 204.505 142.555 204.281 141.808L205.225 141.264C205.385 141.851 205.699 142.304 206.169 142.624C206.638 142.944 207.209 143.104 207.881 143.104C208.67 143.104 209.305 142.896 209.785 142.48C210.275 142.053 210.521 141.477 210.521 140.752C210.521 140.027 210.275 139.456 209.785 139.04C209.305 138.613 208.67 138.4 207.881 138.4H204.841L205.241 132.8H211.241V133.856H206.233L205.993 137.312ZM219.321 139.568H213.561V138.544H219.321V139.568ZM230.722 132.8H232.114V144H230.994V134.496L227.074 141.056H226.914L222.994 134.496V144H221.874V132.8H223.266L226.994 139.04L230.722 132.8ZM235.567 142.16L240.335 136H241.231V144H240.175V137.84L235.407 144H234.511V136H235.567V142.16ZM249.128 139.488V136H250.184V144H249.128V140.512H244.52V144H243.464V136H244.52V139.488H249.128ZM255.585 142.704L258.177 136H259.297L255.873 144.736C255.553 145.547 255.105 146.171 254.529 146.608C253.964 147.056 253.334 147.253 252.641 147.2V146.208C253.601 146.325 254.332 145.771 254.833 144.544L255.041 144.048L251.457 136H252.577L255.585 142.704ZM259.613 136H266.333V137.024H263.501V144H262.445V137.024H259.613V136ZM273.284 139.488V136H274.34V144H273.284V140.512H268.676V144H267.62V136H268.676V139.488H273.284ZM283.277 142.992C282.456 143.792 281.464 144.192 280.301 144.192C279.117 144.192 278.12 143.792 277.309 142.992C276.498 142.181 276.093 141.184 276.093 140C276.093 138.816 276.498 137.824 277.309 137.024C278.12 136.213 279.117 135.808 280.301 135.808C281.474 135.808 282.466 136.213 283.277 137.024C284.098 137.824 284.509 138.816 284.509 140C284.509 141.173 284.098 142.171 283.277 142.992ZM278.061 142.256C278.669 142.864 279.416 143.168 280.301 143.168C281.186 143.168 281.933 142.864 282.541 142.256C283.149 141.627 283.453 140.875 283.453 140C283.453 139.115 283.149 138.368 282.541 137.76C281.933 137.141 281.186 136.832 280.301 136.832C279.416 136.832 278.669 137.141 278.061 137.76C277.453 138.368 277.149 139.115 277.149 140C277.149 140.875 277.453 141.627 278.061 142.256ZM291.716 134.72H287.556V133.792H291.716V134.72ZM287.332 142.16L292.1 136H292.996V144H291.94V137.84L287.172 144H286.276V136H287.332V142.16ZM303.389 138.224L307.069 144H305.789L302.749 139.216L299.709 144H298.429L302.109 138.224L298.669 132.8H299.933L302.749 137.216L305.565 132.8H306.829L303.389 138.224ZM314.652 142.992C313.831 143.792 312.839 144.192 311.676 144.192C310.492 144.192 309.495 143.792 308.684 142.992C307.873 142.181 307.468 141.184 307.468 140C307.468 138.816 307.873 137.824 308.684 137.024C309.495 136.213 310.492 135.808 311.676 135.808C312.849 135.808 313.841 136.213 314.652 137.024C315.473 137.824 315.884 138.816 315.884 140C315.884 141.173 315.473 142.171 314.652 142.992ZM309.436 142.256C310.044 142.864 310.791 143.168 311.676 143.168C312.561 143.168 313.308 142.864 313.916 142.256C314.524 141.627 314.828 140.875 314.828 140C314.828 139.115 314.524 138.368 313.916 137.76C313.308 137.141 312.561 136.832 311.676 136.832C310.791 136.832 310.044 137.141 309.436 137.76C308.828 138.368 308.524 139.115 308.524 140C308.524 140.875 308.828 141.627 309.436 142.256ZM324.059 136V142.976H325.179V146.144H324.123V144H317.595V146.144H316.539V142.976H317.515C318.059 142.251 318.331 141.243 318.331 139.952V136H324.059ZM318.795 142.976H323.003V137.024H319.387V139.952C319.387 141.189 319.189 142.197 318.795 142.976ZM327.832 139.04H330.024C330.76 139.04 331.39 139.275 331.912 139.744C332.435 140.203 332.696 140.795 332.696 141.52C332.696 142.256 332.435 142.853 331.912 143.312C331.411 143.771 330.782 144 330.024 144H326.776V136H327.832V139.04ZM327.832 142.976H330.024C330.483 142.976 330.867 142.843 331.176 142.576C331.486 142.299 331.64 141.947 331.64 141.52C331.64 141.093 331.486 140.747 331.176 140.48C330.867 140.203 330.483 140.064 330.024 140.064H327.832V142.976ZM337.766 144.192C336.624 144.192 335.664 143.813 334.886 143.056C334.118 142.288 333.734 141.296 333.734 140.08C333.734 138.715 333.936 137.669 334.342 136.944C334.747 136.208 335.568 135.541 336.806 134.944C337.2 134.763 337.51 134.624 337.734 134.528C338.107 134.379 338.4 134.251 338.614 134.144C339.542 133.717 340.011 133.189 340.022 132.56L340.854 133.04C340.8 133.307 340.715 133.547 340.598 133.76C340.459 133.995 340.32 134.181 340.182 134.32C340.054 134.459 339.851 134.608 339.574 134.768C339.392 134.875 339.174 134.992 338.918 135.12L338.118 135.456L337.366 135.776C336.63 136.096 336.08 136.432 335.718 136.784C335.366 137.125 335.115 137.573 334.966 138.128C335.307 137.669 335.755 137.323 336.31 137.088C336.864 136.843 337.424 136.72 337.99 136.72C339.056 136.72 339.936 137.072 340.63 137.776C341.334 138.469 341.686 139.36 341.686 140.448C341.686 141.525 341.312 142.421 340.566 143.136C339.83 143.84 338.896 144.192 337.766 144.192ZM335.686 142.352C336.24 142.875 336.934 143.136 337.766 143.136C338.598 143.136 339.28 142.885 339.814 142.384C340.358 141.872 340.63 141.227 340.63 140.448C340.63 139.659 340.374 139.013 339.862 138.512C339.36 138 338.688 137.744 337.846 137.744C337.088 137.744 336.4 137.984 335.782 138.464C335.163 138.923 334.854 139.552 334.854 140.352C334.854 141.163 335.131 141.829 335.686 142.352ZM346.988 135.808C348.183 135.808 349.137 136.229 349.852 137.072C350.588 137.904 350.956 138.891 350.956 140.032C350.956 140.085 350.945 140.251 350.924 140.528H343.9C344.007 141.328 344.348 141.968 344.924 142.448C345.5 142.928 346.22 143.168 347.084 143.168C348.3 143.168 349.159 142.715 349.66 141.808L350.588 142.352C350.236 142.928 349.751 143.381 349.132 143.712C348.524 144.032 347.836 144.192 347.068 144.192C345.809 144.192 344.785 143.797 343.996 143.008C343.207 142.219 342.812 141.216 342.812 140C342.812 138.795 343.201 137.797 343.98 137.008C344.759 136.208 345.761 135.808 346.988 135.808ZM346.988 136.832C346.156 136.832 345.457 137.077 344.892 137.568C344.337 138.059 344.007 138.704 343.9 139.504H349.868C349.751 138.651 349.425 137.995 348.892 137.536C348.337 137.067 347.703 136.832 346.988 136.832ZM366.06 142.512C364.94 143.632 363.569 144.192 361.948 144.192C360.326 144.192 358.956 143.632 357.836 142.512C356.716 141.371 356.156 140 356.156 138.4C356.156 136.789 356.716 135.424 357.836 134.304C358.956 133.173 360.326 132.608 361.948 132.608C363.569 132.608 364.94 133.173 366.06 134.304C367.18 135.424 367.74 136.789 367.74 138.4C367.74 140 367.18 141.371 366.06 142.512ZM357.276 138.4C357.276 139.723 357.724 140.837 358.62 141.744C359.516 142.651 360.625 143.104 361.948 143.104C363.27 143.104 364.38 142.651 365.276 141.744C366.172 140.837 366.62 139.723 366.62 138.4C366.62 137.088 366.172 135.979 365.276 135.072C364.38 134.155 363.27 133.696 361.948 133.696C360.625 133.696 359.516 134.155 358.62 135.072C357.724 135.979 357.276 137.088 357.276 138.4ZM368.535 136H375.255V137.024H372.423V144H371.367V137.024H368.535V136ZM1.28 165.8H9.28V177H8.16V166.856H2.4V177H1.28V165.8ZM18.5625 170.568V169H19.6185V177H18.5625V175.432C17.8265 176.605 16.7492 177.192 15.3305 177.192C14.1892 177.192 13.2132 176.787 12.4025 175.976C11.6025 175.165 11.2025 174.173 11.2025 173C11.2025 171.827 11.6025 170.835 12.4025 170.024C13.2132 169.213 14.1892 168.808 15.3305 168.808C16.7492 168.808 17.8265 169.395 18.5625 170.568ZM13.1705 175.256C13.7785 175.864 14.5252 176.168 15.4105 176.168C16.2958 176.168 17.0425 175.864 17.6505 175.256C18.2585 174.627 18.5625 173.875 18.5625 173C18.5625 172.115 18.2585 171.368 17.6505 170.76C17.0425 170.141 16.2958 169.832 15.4105 169.832C14.5252 169.832 13.7785 170.141 13.1705 170.76C12.5625 171.368 12.2585 172.115 12.2585 173C12.2585 173.875 12.5625 174.627 13.1705 175.256ZM26.1424 168.808C27.2837 168.808 28.2544 169.213 29.0544 170.024C29.865 170.835 30.2704 171.827 30.2704 173C30.2704 174.173 29.865 175.165 29.0544 175.976C28.2544 176.787 27.2837 177.192 26.1424 177.192C24.7237 177.192 23.6464 176.605 22.9104 175.432V180.2H21.8544V169H22.9104V170.568C23.6464 169.395 24.7237 168.808 26.1424 168.808ZM23.8224 175.256C24.4304 175.864 25.177 176.168 26.0624 176.168C26.9477 176.168 27.6944 175.864 28.3024 175.256C28.9104 174.627 29.2144 173.875 29.2144 173C29.2144 172.115 28.9104 171.368 28.3024 170.76C27.6944 170.141 26.9477 169.832 26.0624 169.832C25.177 169.832 24.4304 170.141 23.8224 170.76C23.2144 171.368 22.9104 172.115 22.9104 173C22.9104 173.875 23.2144 174.627 23.8224 175.256ZM34.2023 172.84L38.4903 177H37.0823L33.0823 173.144V177H32.0263V169H33.0823V172.536L36.8903 169H38.3303L34.2023 172.84ZM45.8396 175.992C45.0183 176.792 44.0263 177.192 42.8636 177.192C41.6796 177.192 40.6823 176.792 39.8716 175.992C39.061 175.181 38.6556 174.184 38.6556 173C38.6556 171.816 39.061 170.824 39.8716 170.024C40.6823 169.213 41.6796 168.808 42.8636 168.808C44.037 168.808 45.029 169.213 45.8396 170.024C46.661 170.824 47.0716 171.816 47.0716 173C47.0716 174.173 46.661 175.171 45.8396 175.992ZM40.6236 175.256C41.2316 175.864 41.9783 176.168 42.8636 176.168C43.749 176.168 44.4956 175.864 45.1036 175.256C45.7116 174.627 46.0156 173.875 46.0156 173C46.0156 172.115 45.7116 171.368 45.1036 170.76C44.4956 170.141 43.749 169.832 42.8636 169.832C41.9783 169.832 41.2316 170.141 40.6236 170.76C40.0156 171.368 39.7116 172.115 39.7116 173C39.7116 173.875 40.0156 174.627 40.6236 175.256ZM53.9268 172.888C54.8014 173.208 55.2388 173.832 55.2388 174.76C55.2388 175.421 55.0148 175.96 54.5668 176.376C54.1294 176.792 53.5161 177 52.7268 177H48.8388V169H52.4068C53.1748 169 53.7721 169.197 54.1988 169.592C54.6361 169.987 54.8548 170.504 54.8548 171.144C54.8548 171.944 54.5454 172.525 53.9268 172.888ZM52.4068 170.024H49.8948V172.456H52.4068C53.3348 172.456 53.7988 172.04 53.7988 171.208C53.7988 170.835 53.6761 170.547 53.4308 170.344C53.1961 170.131 52.8548 170.024 52.4068 170.024ZM49.8948 175.976H52.7268C53.1961 175.976 53.5534 175.864 53.7988 175.64C54.0548 175.416 54.1828 175.101 54.1828 174.696C54.1828 174.312 54.0548 174.013 53.7988 173.8C53.5534 173.587 53.1961 173.48 52.7268 173.48H49.8948V175.976ZM63.5428 175.992C62.7214 176.792 61.7294 177.192 60.5668 177.192C59.3828 177.192 58.3854 176.792 57.5748 175.992C56.7641 175.181 56.3588 174.184 56.3588 173C56.3588 171.816 56.7641 170.824 57.5748 170.024C58.3854 169.213 59.3828 168.808 60.5668 168.808C61.7401 168.808 62.7321 169.213 63.5428 170.024C64.3641 170.824 64.7748 171.816 64.7748 173C64.7748 174.173 64.3641 175.171 63.5428 175.992ZM58.3268 175.256C58.9348 175.864 59.6814 176.168 60.5668 176.168C61.4521 176.168 62.1988 175.864 62.8068 175.256C63.4148 174.627 63.7188 173.875 63.7188 173C63.7188 172.115 63.4148 171.368 62.8068 170.76C62.1988 170.141 61.4521 169.832 60.5668 169.832C59.6814 169.832 58.9348 170.141 58.3268 170.76C57.7188 171.368 57.4148 172.115 57.4148 173C57.4148 173.875 57.7188 174.627 58.3268 175.256ZM72.4619 172.568H66.7019V171.544H72.4619V172.568ZM75.0144 165.8H83.0144V177H81.8944V166.856H76.1344V177H75.0144V165.8ZM89.7049 168.808C90.8462 168.808 91.8169 169.213 92.6169 170.024C93.4275 170.835 93.8329 171.827 93.8329 173C93.8329 174.173 93.4275 175.165 92.6169 175.976C91.8169 176.787 90.8462 177.192 89.7049 177.192C88.2862 177.192 87.2089 176.605 86.4729 175.432V180.2H85.4169V169H86.4729V170.568C87.2089 169.395 88.2862 168.808 89.7049 168.808ZM87.3849 175.256C87.9929 175.864 88.7395 176.168 89.6249 176.168C90.5102 176.168 91.2569 175.864 91.8649 175.256C92.4729 174.627 92.7769 173.875 92.7769 173C92.7769 172.115 92.4729 171.368 91.8649 170.76C91.2569 170.141 90.5102 169.832 89.6249 169.832C88.7395 169.832 87.9929 170.141 87.3849 170.76C86.7769 171.368 86.4729 172.115 86.4729 173C86.4729 173.875 86.7769 174.627 87.3849 175.256ZM102.293 175.992C101.471 176.792 100.479 177.192 99.3168 177.192C98.1328 177.192 97.1354 176.792 96.3248 175.992C95.5141 175.181 95.1088 174.184 95.1088 173C95.1088 171.816 95.5141 170.824 96.3248 170.024C97.1354 169.213 98.1328 168.808 99.3168 168.808C100.49 168.808 101.482 169.213 102.293 170.024C103.114 170.824 103.525 171.816 103.525 173C103.525 174.173 103.114 175.171 102.293 175.992ZM97.0768 175.256C97.6848 175.864 98.4314 176.168 99.3168 176.168C100.202 176.168 100.949 175.864 101.557 175.256C102.165 174.627 102.469 173.875 102.469 173C102.469 172.115 102.165 171.368 101.557 170.76C100.949 170.141 100.202 169.832 99.3168 169.832C98.4314 169.832 97.6848 170.141 97.0768 170.76C96.4688 171.368 96.1648 172.115 96.1648 173C96.1648 173.875 96.4688 174.627 97.0768 175.256ZM105.292 169H110.412V170.024H106.348V177H105.292V169ZM115.351 175.704L117.943 169H119.062L115.639 177.736C115.319 178.547 114.871 179.171 114.295 179.608C113.729 180.056 113.1 180.253 112.407 180.2V179.208C113.367 179.325 114.097 178.771 114.599 177.544L114.807 177.048L111.223 169H112.343L115.351 175.704ZM120.686 169H126.414V177H125.358V170.024H121.742V173.592C121.742 174.925 121.486 175.843 120.974 176.344C120.473 176.845 119.78 177.064 118.894 177V176.008C119.513 176.072 119.966 175.923 120.254 175.56C120.542 175.197 120.686 174.541 120.686 173.592V169ZM135.355 175.992C134.534 176.792 133.542 177.192 132.379 177.192C131.195 177.192 130.198 176.792 129.387 175.992C128.577 175.181 128.171 174.184 128.171 173C128.171 171.816 128.577 170.824 129.387 170.024C130.198 169.213 131.195 168.808 132.379 168.808C133.553 168.808 134.545 169.213 135.355 170.024C136.177 170.824 136.587 171.816 136.587 173C136.587 174.173 136.177 175.171 135.355 175.992ZM130.139 175.256C130.747 175.864 131.494 176.168 132.379 176.168C133.265 176.168 134.011 175.864 134.619 175.256C135.227 174.627 135.531 173.875 135.531 173C135.531 172.115 135.227 171.368 134.619 170.76C134.011 170.141 133.265 169.832 132.379 169.832C131.494 169.832 130.747 170.141 130.139 170.76C129.531 171.368 129.227 172.115 129.227 173C129.227 173.875 129.531 174.627 130.139 175.256ZM143.382 172.984V169H144.438V177H143.382V173.96C142.763 174.28 142.001 174.44 141.094 174.44C140.038 174.44 139.238 174.2 138.694 173.72C138.15 173.229 137.878 172.509 137.878 171.56V169H138.934V171.56C138.934 172.221 139.105 172.701 139.446 173C139.798 173.299 140.337 173.448 141.062 173.448C141.873 173.448 142.646 173.293 143.382 172.984ZM152.347 172.488V169H153.403V177H152.347V173.512H147.739V177H146.683V169H147.739V172.488H152.347ZM156.692 172.04H158.884C159.62 172.04 160.249 172.275 160.772 172.744C161.294 173.203 161.556 173.795 161.556 174.52C161.556 175.256 161.294 175.853 160.772 176.312C160.27 176.771 159.641 177 158.884 177H155.636V169H156.692V172.04ZM162.676 177V169H163.732V177H162.676ZM156.692 175.976H158.884C159.342 175.976 159.726 175.843 160.036 175.576C160.345 175.299 160.5 174.947 160.5 174.52C160.5 174.093 160.345 173.747 160.036 173.48C159.726 173.203 159.342 173.064 158.884 173.064H156.692V175.976ZM169.579 172.856L172.699 177H171.435L168.939 173.704L166.443 177H165.179L168.315 172.856L165.387 169H166.651L168.939 172.024L171.227 169H172.491L169.579 172.856ZM183.464 171.208C184.082 171.443 184.562 171.8 184.904 172.28C185.245 172.76 185.416 173.325 185.416 173.976C185.416 174.915 185.064 175.688 184.36 176.296C183.666 176.893 182.728 177.192 181.544 177.192C180.52 177.192 179.682 176.963 179.032 176.504C178.381 176.045 177.922 175.432 177.656 174.664L178.616 174.12C178.765 174.728 179.08 175.219 179.56 175.592C180.04 175.955 180.701 176.136 181.544 176.136C182.397 176.136 183.069 175.939 183.56 175.544C184.05 175.149 184.296 174.627 184.296 173.976C184.296 173.325 184.072 172.803 183.624 172.408C183.176 172.013 182.568 171.816 181.8 171.816H180.52V170.76H181.4C182.157 170.76 182.76 170.573 183.208 170.2C183.656 169.816 183.88 169.315 183.88 168.696C183.88 168.088 183.661 167.597 183.224 167.224C182.786 166.851 182.2 166.664 181.464 166.664C180.088 166.664 179.181 167.251 178.744 168.424L177.816 167.88C178.434 166.365 179.65 165.608 181.464 165.608C182.509 165.608 183.362 165.907 184.024 166.504C184.674 167.091 185 167.827 185 168.712C185 169.832 184.488 170.664 183.464 171.208ZM193.887 175.992C193.065 176.792 192.073 177.192 190.911 177.192C189.727 177.192 188.729 176.792 187.919 175.992C187.108 175.181 186.703 174.184 186.703 173C186.703 171.816 187.108 170.824 187.919 170.024C188.729 169.213 189.727 168.808 190.911 168.808C192.084 168.808 193.076 169.213 193.887 170.024C194.708 170.824 195.119 171.816 195.119 173C195.119 174.173 194.708 175.171 193.887 175.992ZM188.671 175.256C189.279 175.864 190.025 176.168 190.911 176.168C191.796 176.168 192.543 175.864 193.151 175.256C193.759 174.627 194.062 173.875 194.062 173C194.062 172.115 193.759 171.368 193.151 170.76C192.543 170.141 191.796 169.832 190.911 169.832C190.025 169.832 189.279 170.141 188.671 170.76C188.063 171.368 187.759 172.115 187.759 173C187.759 173.875 188.063 174.627 188.671 175.256ZM202.55 172.488V169H203.606V177H202.55V173.512H197.942V177H196.886V169H197.942V172.488H202.55ZM206.319 175.64H207.599L206.639 179.24H205.679L206.319 175.64ZM223.107 175.512C221.987 176.632 220.616 177.192 218.995 177.192C217.373 177.192 216.003 176.632 214.883 175.512C213.763 174.371 213.203 173 213.203 171.4C213.203 169.789 213.763 168.424 214.883 167.304C216.003 166.173 217.373 165.608 218.995 165.608C220.616 165.608 221.987 166.173 223.107 167.304C224.227 168.424 224.787 169.789 224.787 171.4C224.787 173 224.227 174.371 223.107 175.512ZM214.323 171.4C214.323 172.723 214.771 173.837 215.667 174.744C216.563 175.651 217.672 176.104 218.995 176.104C220.317 176.104 221.427 175.651 222.323 174.744C223.219 173.837 223.667 172.723 223.667 171.4C223.667 170.088 223.219 168.979 222.323 168.072C221.427 167.155 220.317 166.696 218.995 166.696C217.672 166.696 216.563 167.155 215.667 168.072C214.771 168.979 214.323 170.088 214.323 171.4ZM230.27 177.192C229.065 177.192 228.062 176.792 227.262 175.992C226.462 175.171 226.062 174.173 226.062 173C226.062 171.816 226.462 170.824 227.262 170.024C228.062 169.213 229.065 168.808 230.27 168.808C231.059 168.808 231.769 169 232.398 169.384C233.027 169.757 233.486 170.264 233.774 170.904L232.91 171.4C232.697 170.92 232.35 170.541 231.87 170.264C231.401 169.976 230.867 169.832 230.27 169.832C229.385 169.832 228.638 170.141 228.03 170.76C227.422 171.368 227.118 172.115 227.118 173C227.118 173.875 227.422 174.627 228.03 175.256C228.638 175.864 229.385 176.168 230.27 176.168C230.857 176.168 231.385 176.029 231.854 175.752C232.334 175.475 232.707 175.091 232.974 174.6L233.854 175.112C233.523 175.752 233.038 176.259 232.398 176.632C231.758 177.005 231.049 177.192 230.27 177.192ZM241.034 172.488V169H242.09V177H241.034V173.512H236.426V177H235.37V169H236.426V172.488H241.034ZM251.027 175.992C250.206 176.792 249.214 177.192 248.051 177.192C246.867 177.192 245.87 176.792 245.059 175.992C244.248 175.181 243.843 174.184 243.843 173C243.843 171.816 244.248 170.824 245.059 170.024C245.87 169.213 246.867 168.808 248.051 168.808C249.224 168.808 250.216 169.213 251.027 170.024C251.848 170.824 252.259 171.816 252.259 173C252.259 174.173 251.848 175.171 251.027 175.992ZM245.811 175.256C246.419 175.864 247.166 176.168 248.051 176.168C248.936 176.168 249.683 175.864 250.291 175.256C250.899 174.627 251.203 173.875 251.203 173C251.203 172.115 250.899 171.368 250.291 170.76C249.683 170.141 248.936 169.832 248.051 169.832C247.166 169.832 246.419 170.141 245.811 170.76C245.203 171.368 244.899 172.115 244.899 173C244.899 173.875 245.203 174.627 245.811 175.256ZM259.114 172.888C259.989 173.208 260.426 173.832 260.426 174.76C260.426 175.421 260.202 175.96 259.754 176.376C259.317 176.792 258.704 177 257.914 177H254.026V169H257.594C258.362 169 258.96 169.197 259.386 169.592C259.824 169.987 260.042 170.504 260.042 171.144C260.042 171.944 259.733 172.525 259.114 172.888ZM257.594 170.024H255.082V172.456H257.594C258.522 172.456 258.986 172.04 258.986 171.208C258.986 170.835 258.864 170.547 258.618 170.344C258.384 170.131 258.042 170.024 257.594 170.024ZM255.082 175.976H257.914C258.384 175.976 258.741 175.864 258.986 175.64C259.242 175.416 259.37 175.101 259.37 174.696C259.37 174.312 259.242 174.013 258.986 173.8C258.741 173.587 258.384 173.48 257.914 173.48H255.082V175.976ZM267.69 172.488V169H268.746V177H267.69V173.512H263.082V177H262.026V169H263.082V172.488H267.69ZM272.035 172.04H274.227C274.963 172.04 275.593 172.275 276.115 172.744C276.638 173.203 276.899 173.795 276.899 174.52C276.899 175.256 276.638 175.853 276.115 176.312C275.614 176.771 274.985 177 274.227 177H270.979V169H272.035V172.04ZM278.019 177V169H279.075V177H278.019ZM272.035 175.976H274.227C274.686 175.976 275.07 175.843 275.379 175.576C275.689 175.299 275.843 174.947 275.843 174.52C275.843 174.093 275.689 173.747 275.379 173.48C275.07 173.203 274.686 173.064 274.227 173.064H272.035V175.976ZM284.923 172.856L288.043 177H286.779L284.283 173.704L281.787 177H280.523L283.659 172.856L280.731 169H281.995L284.283 172.024L286.571 169H287.835L284.923 172.856ZM302.903 175.512C301.783 176.632 300.413 177.192 298.791 177.192C297.17 177.192 295.799 176.632 294.679 175.512C293.559 174.371 292.999 173 292.999 171.4C292.999 169.789 293.559 168.424 294.679 167.304C295.799 166.173 297.17 165.608 298.791 165.608C300.413 165.608 301.783 166.173 302.903 167.304C304.023 168.424 304.583 169.789 304.583 171.4C304.583 173 304.023 174.371 302.903 175.512ZM294.119 171.4C294.119 172.723 294.567 173.837 295.463 174.744C296.359 175.651 297.469 176.104 298.791 176.104C300.114 176.104 301.223 175.651 302.119 174.744C303.015 173.837 303.463 172.723 303.463 171.4C303.463 170.088 303.015 168.979 302.119 168.072C301.223 167.155 300.114 166.696 298.791 166.696C297.469 166.696 296.359 167.155 295.463 168.072C294.567 168.979 294.119 170.088 294.119 171.4ZM309.891 177.192C308.749 177.192 307.789 176.813 307.011 176.056C306.243 175.288 305.859 174.296 305.859 173.08C305.859 171.715 306.061 170.669 306.467 169.944C306.872 169.208 307.693 168.541 308.931 167.944C309.325 167.763 309.635 167.624 309.859 167.528C310.232 167.379 310.525 167.251 310.739 167.144C311.667 166.717 312.136 166.189 312.147 165.56L312.979 166.04C312.925 166.307 312.84 166.547 312.723 166.76C312.584 166.995 312.445 167.181 312.307 167.32C312.179 167.459 311.976 167.608 311.699 167.768C311.517 167.875 311.299 167.992 311.043 168.12L310.243 168.456L309.491 168.776C308.755 169.096 308.205 169.432 307.843 169.784C307.491 170.125 307.24 170.573 307.091 171.128C307.432 170.669 307.88 170.323 308.435 170.088C308.989 169.843 309.549 169.72 310.115 169.72C311.181 169.72 312.061 170.072 312.755 170.776C313.459 171.469 313.811 172.36 313.811 173.448C313.811 174.525 313.437 175.421 312.691 176.136C311.955 176.84 311.021 177.192 309.891 177.192ZM307.811 175.352C308.365 175.875 309.059 176.136 309.891 176.136C310.723 176.136 311.405 175.885 311.939 175.384C312.483 174.872 312.755 174.227 312.755 173.448C312.755 172.659 312.499 172.013 311.987 171.512C311.485 171 310.813 170.744 309.971 170.744C309.213 170.744 308.525 170.984 307.907 171.464C307.288 171.923 306.979 172.552 306.979 173.352C306.979 174.163 307.256 174.829 307.811 175.352ZM317.28 172.04H319.472C320.208 172.04 320.838 172.275 321.36 172.744C321.883 173.203 322.144 173.795 322.144 174.52C322.144 175.256 321.883 175.853 321.36 176.312C320.859 176.771 320.23 177 319.472 177H316.224V170.024H313.984V169H317.28V172.04ZM317.28 175.976H319.472C319.931 175.976 320.315 175.843 320.624 175.576C320.934 175.299 321.088 174.947 321.088 174.52C321.088 174.093 320.934 173.747 320.624 173.48C320.315 173.203 319.931 173.064 319.472 173.064H317.28V175.976ZM327.363 168.808C328.558 168.808 329.512 169.229 330.227 170.072C330.963 170.904 331.331 171.891 331.331 173.032C331.331 173.085 331.32 173.251 331.299 173.528H324.275C324.382 174.328 324.723 174.968 325.299 175.448C325.875 175.928 326.595 176.168 327.459 176.168C328.675 176.168 329.534 175.715 330.035 174.808L330.963 175.352C330.611 175.928 330.126 176.381 329.507 176.712C328.899 177.032 328.211 177.192 327.443 177.192C326.184 177.192 325.16 176.797 324.371 176.008C323.582 175.219 323.187 174.216 323.187 173C323.187 171.795 323.576 170.797 324.355 170.008C325.134 169.208 326.136 168.808 327.363 168.808ZM327.363 169.832C326.531 169.832 325.832 170.077 325.267 170.568C324.712 171.059 324.382 171.704 324.275 172.504H330.243C330.126 171.651 329.8 170.995 329.267 170.536C328.712 170.067 328.078 169.832 327.363 169.832ZM335.187 172.84L339.475 177H338.067L334.067 173.144V177H333.011V169H334.067V172.536L337.875 169H339.315L335.187 172.84ZM339.957 169H346.677V170.024H343.845V177H342.789V170.024H339.957V169ZM354.355 175.992C353.534 176.792 352.542 177.192 351.379 177.192C350.195 177.192 349.198 176.792 348.387 175.992C347.577 175.181 347.171 174.184 347.171 173C347.171 171.816 347.577 170.824 348.387 170.024C349.198 169.213 350.195 168.808 351.379 168.808C352.553 168.808 353.545 169.213 354.355 170.024C355.177 170.824 355.587 171.816 355.587 173C355.587 174.173 355.177 175.171 354.355 175.992ZM349.139 175.256C349.747 175.864 350.494 176.168 351.379 176.168C352.265 176.168 353.011 175.864 353.619 175.256C354.227 174.627 354.531 173.875 354.531 173C354.531 172.115 354.227 171.368 353.619 170.76C353.011 170.141 352.265 169.832 351.379 169.832C350.494 169.832 349.747 170.141 349.139 170.76C348.531 171.368 348.227 172.115 348.227 173C348.227 173.875 348.531 174.627 349.139 175.256ZM362.442 172.888C363.317 173.208 363.754 173.832 363.754 174.76C363.754 175.421 363.53 175.96 363.082 176.376C362.645 176.792 362.032 177 361.242 177H357.354V169H360.922C361.69 169 362.288 169.197 362.714 169.592C363.152 169.987 363.37 170.504 363.37 171.144C363.37 171.944 363.061 172.525 362.442 172.888ZM360.922 170.024H358.41V172.456H360.922C361.85 172.456 362.314 172.04 362.314 171.208C362.314 170.835 362.192 170.547 361.946 170.344C361.712 170.131 361.37 170.024 360.922 170.024ZM358.41 175.976H361.242C361.712 175.976 362.069 175.864 362.314 175.64C362.57 175.416 362.698 175.101 362.698 174.696C362.698 174.312 362.57 174.013 362.314 173.8C362.069 173.587 361.712 173.48 361.242 173.48H358.41V175.976ZM6.512 210.192C4.80533 210.192 3.40267 209.632 2.304 208.512C1.19467 207.381 0.64 206.011 0.64 204.4C0.64 202.789 1.19467 201.419 2.304 200.288C3.40267 199.168 4.80533 198.608 6.512 198.608C7.536 198.608 8.48 198.859 9.344 199.36C10.208 199.851 10.88 200.517 11.36 201.36L10.368 201.936C10.016 201.253 9.49333 200.709 8.8 200.304C8.10667 199.899 7.344 199.696 6.512 199.696C5.104 199.696 3.96267 200.149 3.088 201.056C2.20267 201.973 1.76 203.088 1.76 204.4C1.76 205.712 2.20267 206.827 3.088 207.744C3.96267 208.651 5.104 209.104 6.512 209.104C7.344 209.104 8.10667 208.901 8.8 208.496C9.49333 208.091 10.016 207.547 10.368 206.864L11.36 207.424C10.9013 208.267 10.2347 208.939 9.36 209.44C8.48533 209.941 7.536 210.192 6.512 210.192ZM19.6678 208.992C18.8464 209.792 17.8544 210.192 16.6918 210.192C15.5078 210.192 14.5104 209.792 13.6998 208.992C12.8891 208.181 12.4838 207.184 12.4838 206C12.4838 204.816 12.8891 203.824 13.6998 203.024C14.5104 202.213 15.5078 201.808 16.6918 201.808C17.8651 201.808 18.8571 202.213 19.6678 203.024C20.4891 203.824 20.8998 204.816 20.8998 206C20.8998 207.173 20.4891 208.171 19.6678 208.992ZM14.4518 208.256C15.0598 208.864 15.8064 209.168 16.6918 209.168C17.5771 209.168 18.3238 208.864 18.9318 208.256C19.5398 207.627 19.8438 206.875 19.8438 206C19.8438 205.115 19.5398 204.368 18.9318 203.76C18.3238 203.141 17.5771 202.832 16.6918 202.832C15.8064 202.832 15.0598 203.141 14.4518 203.76C13.8438 204.368 13.5398 205.115 13.5398 206C13.5398 206.875 13.8438 207.627 14.4518 208.256ZM29.2269 202V208.976H30.5069V212.144H29.4509V210H22.6669V202H23.7229V208.976H28.1709V202H29.2269ZM35.3439 210.192C34.2025 210.192 33.2425 209.813 32.4639 209.056C31.6959 208.288 31.3119 207.296 31.3119 206.08C31.3119 204.715 31.5145 203.669 31.9199 202.944C32.3252 202.208 33.1465 201.541 34.3839 200.944C34.7785 200.763 35.0879 200.624 35.3119 200.528C35.6852 200.379 35.9785 200.251 36.1919 200.144C37.1199 199.717 37.5892 199.189 37.5999 198.56L38.4319 199.04C38.3785 199.307 38.2932 199.547 38.1759 199.76C38.0372 199.995 37.8985 200.181 37.7599 200.32C37.6319 200.459 37.4292 200.608 37.1519 200.768C36.9705 200.875 36.7519 200.992 36.4959 201.12L35.6959 201.456L34.9439 201.776C34.2079 202.096 33.6585 202.432 33.2959 202.784C32.9439 203.125 32.6932 203.573 32.5439 204.128C32.8852 203.669 33.3332 203.323 33.8879 203.088C34.4425 202.843 35.0025 202.72 35.5679 202.72C36.6345 202.72 37.5145 203.072 38.2079 203.776C38.9119 204.469 39.2639 205.36 39.2639 206.448C39.2639 207.525 38.8905 208.421 38.1439 209.136C37.4079 209.84 36.4745 210.192 35.3439 210.192ZM33.2639 208.352C33.8185 208.875 34.5119 209.136 35.3439 209.136C36.1759 209.136 36.8585 208.885 37.3919 208.384C37.9359 207.872 38.2079 207.227 38.2079 206.448C38.2079 205.659 37.9519 205.013 37.4399 204.512C36.9385 204 36.2665 203.744 35.4239 203.744C34.6665 203.744 33.9785 203.984 33.3599 204.464C32.7412 204.923 32.4319 205.552 32.4319 206.352C32.4319 207.163 32.7092 207.829 33.2639 208.352ZM41.926 205.04H44.118C44.854 205.04 45.4833 205.275 46.006 205.744C46.5287 206.203 46.79 206.795 46.79 207.52C46.79 208.256 46.5287 208.853 46.006 209.312C45.5047 209.771 44.8753 210 44.118 210H40.87V202H41.926V205.04ZM47.91 210V202H48.966V210H47.91ZM41.926 208.976H44.118C44.5767 208.976 44.9607 208.843 45.27 208.576C45.5793 208.299 45.734 207.947 45.734 207.52C45.734 207.093 45.5793 206.747 45.27 206.48C44.9607 206.203 44.5767 206.064 44.118 206.064H41.926V208.976ZM50.2538 202H56.9738V203.024H54.1418V210H53.0858V203.024H50.2538V202ZM64.8281 203.568V202H65.8841V210H64.8281V208.432C64.0921 209.605 63.0148 210.192 61.5961 210.192C60.4548 210.192 59.4788 209.787 58.6681 208.976C57.8681 208.165 57.4681 207.173 57.4681 206C57.4681 204.827 57.8681 203.835 58.6681 203.024C59.4788 202.213 60.4548 201.808 61.5961 201.808C63.0148 201.808 64.0921 202.395 64.8281 203.568ZM59.4361 208.256C60.0441 208.864 60.7908 209.168 61.6761 209.168C62.5615 209.168 63.3081 208.864 63.9161 208.256C64.5241 207.627 64.8281 206.875 64.8281 206C64.8281 205.115 64.5241 204.368 63.9161 203.76C63.3081 203.141 62.5615 202.832 61.6761 202.832C60.7908 202.832 60.0441 203.141 59.4361 203.76C58.8281 204.368 58.5241 205.115 58.5241 206C58.5241 206.875 58.8281 207.627 59.4361 208.256ZM77.512 210.192C75.8053 210.192 74.4027 209.632 73.304 208.512C72.1947 207.381 71.64 206.011 71.64 204.4C71.64 202.789 72.1947 201.419 73.304 200.288C74.4027 199.168 75.8053 198.608 77.512 198.608C78.536 198.608 79.48 198.859 80.344 199.36C81.208 199.851 81.88 200.517 82.36 201.36L81.368 201.936C81.016 201.253 80.4933 200.709 79.8 200.304C79.1067 199.899 78.344 199.696 77.512 199.696C76.104 199.696 74.9627 200.149 74.088 201.056C73.2027 201.973 72.76 203.088 72.76 204.4C72.76 205.712 73.2027 206.827 74.088 207.744C74.9627 208.651 76.104 209.104 77.512 209.104C78.344 209.104 79.1067 208.901 79.8 208.496C80.4933 208.091 81.016 207.547 81.368 206.864L82.36 207.424C81.9013 208.267 81.2347 208.939 80.36 209.44C79.4853 209.941 78.536 210.192 77.512 210.192ZM91.7859 205.68L94.7299 198.8H95.8819L92.1539 207.552C91.7805 208.448 91.3059 209.093 90.7299 209.488C90.1539 209.883 89.4392 210.053 88.5859 210V208.976C89.1832 209.04 89.6739 208.955 90.0579 208.72C90.4525 208.475 90.7779 208.053 91.0339 207.456L91.2579 206.928L87.4019 198.8H88.5539L91.7859 205.68ZM102.606 202V208.976H103.726V212.144H102.67V210H96.1416V212.144H95.0856V208.976H96.0616C96.6056 208.251 96.8776 207.243 96.8776 205.952V202H102.606ZM97.3416 208.976H101.55V203.024H97.9336V205.952C97.9336 207.189 97.7363 208.197 97.3416 208.976ZM111.715 208.992C110.893 209.792 109.901 210.192 108.739 210.192C107.555 210.192 106.557 209.792 105.747 208.992C104.936 208.181 104.531 207.184 104.531 206C104.531 204.816 104.936 203.824 105.747 203.024C106.557 202.213 107.555 201.808 108.739 201.808C109.912 201.808 110.904 202.213 111.715 203.024C112.536 203.824 112.947 204.816 112.947 206C112.947 207.173 112.536 208.171 111.715 208.992ZM106.499 208.256C107.107 208.864 107.853 209.168 108.739 209.168C109.624 209.168 110.371 208.864 110.979 208.256C111.587 207.627 111.891 206.875 111.891 206C111.891 205.115 111.587 204.368 110.979 203.76C110.371 203.141 109.624 202.832 108.739 202.832C107.853 202.832 107.107 203.141 106.499 203.76C105.891 204.368 105.587 205.115 105.587 206C105.587 206.875 105.891 207.627 106.499 208.256ZM118.266 210.192C117.124 210.192 116.164 209.813 115.386 209.056C114.618 208.288 114.234 207.296 114.234 206.08C114.234 204.715 114.436 203.669 114.842 202.944C115.247 202.208 116.068 201.541 117.306 200.944C117.7 200.763 118.01 200.624 118.234 200.528C118.607 200.379 118.9 200.251 119.114 200.144C120.042 199.717 120.511 199.189 120.522 198.56L121.354 199.04C121.3 199.307 121.215 199.547 121.098 199.76C120.959 199.995 120.82 200.181 120.682 200.32C120.554 200.459 120.351 200.608 120.074 200.768C119.892 200.875 119.674 200.992 119.418 201.12L118.618 201.456L117.866 201.776C117.13 202.096 116.58 202.432 116.218 202.784C115.866 203.125 115.615 203.573 115.466 204.128C115.807 203.669 116.255 203.323 116.81 203.088C117.364 202.843 117.924 202.72 118.49 202.72C119.556 202.72 120.436 203.072 121.13 203.776C121.834 204.469 122.186 205.36 122.186 206.448C122.186 207.525 121.812 208.421 121.066 209.136C120.33 209.84 119.396 210.192 118.266 210.192ZM116.186 208.352C116.74 208.875 117.434 209.136 118.266 209.136C119.098 209.136 119.78 208.885 120.314 208.384C120.858 207.872 121.13 207.227 121.13 206.448C121.13 205.659 120.874 205.013 120.362 204.512C119.86 204 119.188 203.744 118.346 203.744C117.588 203.744 116.9 203.984 116.282 204.464C115.663 204.923 115.354 205.552 115.354 206.352C115.354 207.163 115.631 207.829 116.186 208.352ZM129.456 205.488V202H130.512V210H129.456V206.512H124.848V210H123.792V202H124.848V205.488H129.456ZM139.449 208.992C138.628 209.792 137.636 210.192 136.473 210.192C135.289 210.192 134.292 209.792 133.481 208.992C132.67 208.181 132.265 207.184 132.265 206C132.265 204.816 132.67 203.824 133.481 203.024C134.292 202.213 135.289 201.808 136.473 201.808C137.646 201.808 138.638 202.213 139.449 203.024C140.27 203.824 140.681 204.816 140.681 206C140.681 207.173 140.27 208.171 139.449 208.992ZM134.233 208.256C134.841 208.864 135.588 209.168 136.473 209.168C137.358 209.168 138.105 208.864 138.713 208.256C139.321 207.627 139.625 206.875 139.625 206C139.625 205.115 139.321 204.368 138.713 203.76C138.105 203.141 137.358 202.832 136.473 202.832C135.588 202.832 134.841 203.141 134.233 203.76C133.625 204.368 133.321 205.115 133.321 206C133.321 206.875 133.625 207.627 134.233 208.256ZM147.888 200.72H143.728V199.792H147.888V200.72ZM143.504 208.16L148.272 202H149.168V210H148.112V203.84L143.344 210H142.448V202H143.504V208.16ZM154.601 198.8H162.601V199.856H159.161V210H158.041V199.856H154.601V198.8ZM167.205 201.808C168.346 201.808 169.317 202.213 170.117 203.024C170.928 203.835 171.333 204.827 171.333 206C171.333 207.173 170.928 208.165 170.117 208.976C169.317 209.787 168.346 210.192 167.205 210.192C165.786 210.192 164.709 209.605 163.973 208.432V213.2H162.917V202H163.973V203.568C164.709 202.395 165.786 201.808 167.205 201.808ZM164.885 208.256C165.493 208.864 166.24 209.168 167.125 209.168C168.01 209.168 168.757 208.864 169.365 208.256C169.973 207.627 170.277 206.875 170.277 206C170.277 205.115 169.973 204.368 169.365 203.76C168.757 203.141 168.01 202.832 167.125 202.832C166.24 202.832 165.493 203.141 164.885 203.76C164.277 204.368 163.973 205.115 163.973 206C163.973 206.875 164.277 207.627 164.885 208.256ZM179.969 203.568V202H181.025V210H179.969V208.432C179.233 209.605 178.155 210.192 176.737 210.192C175.595 210.192 174.619 209.787 173.809 208.976C173.009 208.165 172.609 207.173 172.609 206C172.609 204.827 173.009 203.835 173.809 203.024C174.619 202.213 175.595 201.808 176.737 201.808C178.155 201.808 179.233 202.395 179.969 203.568ZM174.577 208.256C175.185 208.864 175.931 209.168 176.817 209.168C177.702 209.168 178.449 208.864 179.057 208.256C179.665 207.627 179.969 206.875 179.969 206C179.969 205.115 179.665 204.368 179.057 203.76C178.449 203.141 177.702 202.832 176.817 202.832C175.931 202.832 175.185 203.141 174.577 203.76C173.969 204.368 173.665 205.115 173.665 206C173.665 206.875 173.969 207.627 174.577 208.256ZM188.925 205.488V202H189.981V210H188.925V206.512H184.317V210H183.261V202H184.317V205.488H188.925ZM195.942 210.192C194.736 210.192 193.734 209.792 192.934 208.992C192.134 208.171 191.734 207.173 191.734 206C191.734 204.816 192.134 203.824 192.934 203.024C193.734 202.213 194.736 201.808 195.942 201.808C196.731 201.808 197.44 202 198.07 202.384C198.699 202.757 199.158 203.264 199.446 203.904L198.582 204.4C198.368 203.92 198.022 203.541 197.542 203.264C197.072 202.976 196.539 202.832 195.942 202.832C195.056 202.832 194.31 203.141 193.702 203.76C193.094 204.368 192.79 205.115 192.79 206C192.79 206.875 193.094 207.627 193.702 208.256C194.31 208.864 195.056 209.168 195.942 209.168C196.528 209.168 197.056 209.029 197.526 208.752C198.006 208.475 198.379 208.091 198.646 207.6L199.526 208.112C199.195 208.752 198.71 209.259 198.07 209.632C197.43 210.005 196.72 210.192 195.942 210.192ZM201.042 202H207.762V210H206.706V203.024H202.098V210H201.042V202ZM216.699 208.992C215.878 209.792 214.886 210.192 213.723 210.192C212.539 210.192 211.542 209.792 210.731 208.992C209.92 208.181 209.515 207.184 209.515 206C209.515 204.816 209.92 203.824 210.731 203.024C211.542 202.213 212.539 201.808 213.723 201.808C214.896 201.808 215.888 202.213 216.699 203.024C217.52 203.824 217.931 204.816 217.931 206C217.931 207.173 217.52 208.171 216.699 208.992ZM211.483 208.256C212.091 208.864 212.838 209.168 213.723 209.168C214.608 209.168 215.355 208.864 215.963 208.256C216.571 207.627 216.875 206.875 216.875 206C216.875 205.115 216.571 204.368 215.963 203.76C215.355 203.141 214.608 202.832 213.723 202.832C212.838 202.832 212.091 203.141 211.483 203.76C210.875 204.368 210.571 205.115 210.571 206C210.571 206.875 210.875 207.627 211.483 208.256ZM223.986 201.808C225.127 201.808 226.098 202.213 226.898 203.024C227.709 203.835 228.114 204.827 228.114 206C228.114 207.173 227.709 208.165 226.898 208.976C226.098 209.787 225.127 210.192 223.986 210.192C222.567 210.192 221.49 209.605 220.754 208.432V213.2H219.698V202H220.754V203.568C221.49 202.395 222.567 201.808 223.986 201.808ZM221.666 208.256C222.274 208.864 223.021 209.168 223.906 209.168C224.791 209.168 225.538 208.864 226.146 208.256C226.754 207.627 227.058 206.875 227.058 206C227.058 205.115 226.754 204.368 226.146 203.76C225.538 203.141 224.791 202.832 223.906 202.832C223.021 202.832 222.274 203.141 221.666 203.76C221.058 204.368 220.754 205.115 220.754 206C220.754 206.875 221.058 207.627 221.666 208.256ZM228.598 202H235.318V203.024H232.486V210H231.43V203.024H228.598V202ZM242.268 205.488V202H243.324V210H242.268V206.512H237.66V210H236.604V202H237.66V205.488H242.268ZM252.262 208.992C251.44 209.792 250.448 210.192 249.286 210.192C248.102 210.192 247.104 209.792 246.294 208.992C245.483 208.181 245.078 207.184 245.078 206C245.078 204.816 245.483 203.824 246.294 203.024C247.104 202.213 248.102 201.808 249.286 201.808C250.459 201.808 251.451 202.213 252.262 203.024C253.083 203.824 253.494 204.816 253.494 206C253.494 207.173 253.083 208.171 252.262 208.992ZM247.046 208.256C247.654 208.864 248.4 209.168 249.286 209.168C250.171 209.168 250.918 208.864 251.526 208.256C252.134 207.627 252.438 206.875 252.438 206C252.438 205.115 252.134 204.368 251.526 203.76C250.918 203.141 250.171 202.832 249.286 202.832C248.4 202.832 247.654 203.141 247.046 203.76C246.438 204.368 246.134 205.115 246.134 206C246.134 206.875 246.438 207.627 247.046 208.256ZM260.701 200.72H256.541V199.792H260.701V200.72ZM256.317 208.16L261.085 202H261.981V210H260.925V203.84L256.157 210H255.261V202H256.317V208.16ZM268.374 198.8H272.374C273.376 198.8 274.214 199.136 274.886 199.808C275.558 200.48 275.894 201.317 275.894 202.32C275.894 203.323 275.558 204.16 274.886 204.832C274.214 205.504 273.376 205.84 272.374 205.84H269.494V210H268.374V198.8ZM269.494 204.784H272.374C273.067 204.784 273.638 204.555 274.086 204.096C274.544 203.637 274.774 203.045 274.774 202.32C274.774 201.605 274.544 201.019 274.086 200.56C273.638 200.091 273.067 199.856 272.374 199.856H269.494V204.784ZM283.891 203.568V202H284.947V210H283.891V208.432C283.155 209.605 282.077 210.192 280.659 210.192C279.517 210.192 278.541 209.787 277.731 208.976C276.931 208.165 276.531 207.173 276.531 206C276.531 204.827 276.931 203.835 277.731 203.024C278.541 202.213 279.517 201.808 280.659 201.808C282.077 201.808 283.155 202.395 283.891 203.568ZM278.499 208.256C279.107 208.864 279.853 209.168 280.739 209.168C281.624 209.168 282.371 208.864 282.979 208.256C283.587 207.627 283.891 206.875 283.891 206C283.891 205.115 283.587 204.368 282.979 203.76C282.371 203.141 281.624 202.832 280.739 202.832C279.853 202.832 279.107 203.141 278.499 203.76C277.891 204.368 277.587 205.115 277.587 206C277.587 206.875 277.891 207.627 278.499 208.256ZM291.311 205.888C292.239 206.24 292.703 206.88 292.703 207.808C292.703 208.48 292.441 209.045 291.919 209.504C291.417 209.963 290.681 210.192 289.711 210.192C288.089 210.192 287.033 209.552 286.543 208.272L287.439 207.744C287.78 208.693 288.537 209.168 289.711 209.168C290.319 209.168 290.793 209.04 291.135 208.784C291.476 208.517 291.647 208.171 291.647 207.744C291.647 207.36 291.508 207.056 291.231 206.832C290.953 206.597 290.58 206.48 290.111 206.48H288.943V205.456H289.791C290.249 205.456 290.607 205.344 290.863 205.12C291.129 204.885 291.263 204.565 291.263 204.16C291.263 203.776 291.103 203.461 290.783 203.216C290.473 202.96 290.063 202.832 289.551 202.832C288.559 202.832 287.892 203.232 287.551 204.032L286.671 203.52C287.204 202.379 288.164 201.808 289.551 201.808C290.404 201.808 291.076 202.032 291.567 202.48C292.068 202.917 292.319 203.456 292.319 204.096C292.319 204.917 291.983 205.515 291.311 205.888ZM299.396 205.888C300.27 206.208 300.708 206.832 300.708 207.76C300.708 208.421 300.484 208.96 300.036 209.376C299.598 209.792 298.985 210 298.196 210H294.308V202H297.876C298.644 202 299.241 202.197 299.668 202.592C300.105 202.987 300.324 203.504 300.324 204.144C300.324 204.944 300.014 205.525 299.396 205.888ZM297.876 203.024H295.364V205.456H297.876C298.804 205.456 299.268 205.04 299.268 204.208C299.268 203.835 299.145 203.547 298.9 203.344C298.665 203.131 298.324 203.024 297.876 203.024ZM295.364 208.976H298.196C298.665 208.976 299.022 208.864 299.268 208.64C299.524 208.416 299.652 208.101 299.652 207.696C299.652 207.312 299.524 207.013 299.268 206.8C299.022 206.587 298.665 206.48 298.196 206.48H295.364V208.976ZM304.507 202H307.755V210H306.699V206.928H305.323L302.859 210H301.515L304.043 206.896C303.392 206.8 302.859 206.533 302.443 206.096C302.038 205.648 301.835 205.109 301.835 204.48C301.835 203.765 302.091 203.173 302.603 202.704C303.136 202.235 303.771 202 304.507 202ZM304.507 205.936H306.699V203.024H304.507C304.048 203.024 303.664 203.163 303.355 203.44C303.046 203.707 302.891 204.053 302.891 204.48C302.891 204.907 303.046 205.259 303.355 205.536C303.664 205.803 304.048 205.936 304.507 205.936ZM314.123 205.888C315.051 206.24 315.515 206.88 315.515 207.808C315.515 208.48 315.254 209.045 314.731 209.504C314.23 209.963 313.494 210.192 312.523 210.192C310.902 210.192 309.846 209.552 309.355 208.272L310.251 207.744C310.592 208.693 311.35 209.168 312.523 209.168C313.131 209.168 313.606 209.04 313.947 208.784C314.288 208.517 314.459 208.171 314.459 207.744C314.459 207.36 314.32 207.056 314.043 206.832C313.766 206.597 313.392 206.48 312.923 206.48H311.755V205.456H312.603C313.062 205.456 313.419 205.344 313.675 205.12C313.942 204.885 314.075 204.565 314.075 204.16C314.075 203.776 313.915 203.461 313.595 203.216C313.286 202.96 312.875 202.832 312.363 202.832C311.371 202.832 310.704 203.232 310.363 204.032L309.483 203.52C310.016 202.379 310.976 201.808 312.363 201.808C313.216 201.808 313.888 202.032 314.379 202.48C314.88 202.917 315.131 203.456 315.131 204.096C315.131 204.917 314.795 205.515 314.123 205.888ZM319.296 205.84L323.584 210H322.176L318.176 206.144V210H317.12V202H318.176V205.536L321.984 202H323.424L319.296 205.84ZM330.933 208.992C330.112 209.792 329.12 210.192 327.957 210.192C326.773 210.192 325.776 209.792 324.965 208.992C324.155 208.181 323.749 207.184 323.749 206C323.749 204.816 324.155 203.824 324.965 203.024C325.776 202.213 326.773 201.808 327.957 201.808C329.131 201.808 330.123 202.213 330.933 203.024C331.755 203.824 332.165 204.816 332.165 206C332.165 207.173 331.755 208.171 330.933 208.992ZM325.717 208.256C326.325 208.864 327.072 209.168 327.957 209.168C328.843 209.168 329.589 208.864 330.197 208.256C330.805 207.627 331.109 206.875 331.109 206C331.109 205.115 330.805 204.368 330.197 203.76C329.589 203.141 328.843 202.832 327.957 202.832C327.072 202.832 326.325 203.141 325.717 203.76C325.109 204.368 324.805 205.115 324.805 206C324.805 206.875 325.109 207.627 325.717 208.256ZM339.373 200.72H335.213V199.792H339.373V200.72ZM334.989 208.16L339.757 202H340.653V210H339.597V203.84L334.829 210H333.933V202H334.989V208.16ZM344.486 209.28C344.486 209.525 344.4 209.733 344.23 209.904C344.059 210.075 343.851 210.16 343.606 210.16C343.36 210.16 343.152 210.075 342.982 209.904C342.811 209.733 342.726 209.525 342.726 209.28C342.726 209.035 342.811 208.827 342.982 208.656C343.152 208.485 343.36 208.4 343.606 208.4C343.851 208.4 344.059 208.485 344.23 208.656C344.4 208.827 344.486 209.035 344.486 209.28Z" fill="#222222"/>
</svg>
